<mxfile host="app.diagrams.net" modified="2023-03-27T14:34:39.846Z" agent="Mozilla/5.0 (Windows NT 10.0; Win64; x64) AppleWebKit/537.36 (KHTML, like Gecko) Chrome/111.0.0.0 Safari/537.36" etag="CrCSJHxihGw_O4GRyPeZ" version="21.1.1" type="github" pages="10">
  <diagram name="Page-1" id="2cc2dc42-3aac-f2a9-1cec-7a8b7cbee084">
    <mxGraphModel dx="2029" dy="1066" grid="1" gridSize="10" guides="1" tooltips="1" connect="1" arrows="1" fold="1" page="1" pageScale="1" pageWidth="827" pageHeight="1169" background="none" math="0" shadow="0">
      <root>
        <mxCell id="0" />
        <mxCell id="1" parent="0" />
        <mxCell id="O4CA-UXKTGQqIf8RaLZ9-4" value="" style="shape=image;verticalLabelPosition=bottom;labelBackgroundColor=default;verticalAlign=top;aspect=fixed;imageAspect=0;image=data:image/png,iVBORw0KGgoAAAANSUhEUgAAAmEAAAHYCAYAAAAF2D9rAAAAAXNSR0IArs4c6QAAAARnQU1BAACxjwv8YQUAAAAJcEhZcwAAFxEAABcRAcom8z8AAIDcSURBVHhe7Z0FmF3F+YeL1IV6aSlUqAI1ahQqlLpQ+NNSo16oC4UWilOkEFyDF3d3d4oUd0lCcCgQQiABEpLO/7xn77ecHM6Vzd7dK/u+zzNPsvcemTNn5pvffPPN3BdkJJPJZDKZTCbTqKX/ZCknHXDAAek///mPyWQymUwmk2kE07hx4+YWYbfddlsSERERkZHlzDPPnFuEocxEREREZGQ59thjFWEiY4b/1ZKISEtoNEYSRZjIWEJ7KiJDQqMxkijCpGVshiIiIu1DESYiIiLSARRhIiIiIh1AESYiIiLSARRhIn2P0XwiIt1EWGVFmEjfM8oiTM0nItIQRZiIjAyKMBGRllCEyehDJ21HLSIybDSnvU1/iTBrooiIiPQIesJEREREOoAiTERERKQDKMJEREREOoAiTERERKQDKMJERER6hKlTHkkP3D0p3TPxtizdWvvXNJR07523p+uuviLddO1V6b/3352mP/F4rXRHH0WYiIhIF/PwQw+k6/5zaTrn1OPTQYcflcbtc0TaZPfD08a7D/xrGmIaf2T66yZbp3U33z7ttP8x6cijj04XnXlyuuWGa9K0qY/VSn10UIT1O27bISLSkzw1Y3q6+dor0577H5x+8Pdd0gp/3i0ts96x6T0bXJAW2+DytOgGV+T/moaWKLel/n5qWvLvp6UlNjw/LbfOoelLf9o5/WrT3dNRmSCbfMetafbsZ2tvYWRRhImIjAbuqilD4MknpqVTTj87/WHj7dNn1zk4vW6zSekF2/4vS8nUjrRdLcX/x81Kb93k2vS1dfZO62+1a7riyivTzKefrr2N4VOv6XeBCNMqiYjIaNLd/c6M6dPzacfvrrtrWmzja9L82z49IBa2rwkG0/ATZRnlGf/fdk5aYOun0lIbnptW33DHdM6556Vnnx1Zj5ieMBERkS7h2Vkz0xHHnJC+s96eaeGNrs9Ewuzhia/w/GxTSEVP0FCP61Qq5m+k8lUTYwts83R69/oXpF9vslu68KKLa29mZFCEiYgMB5350iYQYFf+5/L0x812SYtsdHWab7gCjIRo2TpLWxUSf5eFzLgsFY8h8VnxmE4mniPyVZX/dqaszBfc9um05Lqnpa132jNNuOP22htqP10vwm6//fa0xRZbpJ/+9KcN069+9at06aWXptmzZ9fObC/nnXde+v3vfz/XPTfddNN077331o4YYPr06emII47Ij913333T1KlTa990F9OmTUsHH3xwWmONNdL+++/ftfkUkfZw5513pj322CMdeuihuZ169NFH0y677JKOOeaY9NRTT+XHnHPOOWmDDTZI119/ffrf//6XJk6cmHbbbbd0xhln5N/LyPLYww+mLbcalz6y3mlp/m1mphfsUCEQhpIysfLRg1Pa/sqUDrhpIO1/Y0p/ODelN+0x8D3i5uU7p/TN41Iaf91zx+19Q0rfOyWlhXbNjhlJwdMsZfl72U4pfSPL3x61/P3twpTetnf2HfmvOqcdKSv7l2w1Na3w1/3TQfvtleaMUKB+14swxM+SSy5JJpum8ePHp1mzZtXObA/33HNP2nnnndPHPvaxynv+6Ec/SieddFJ6uhbAN2XKlPS73/0u/27VVVd9nkjrFh544IH085//PM/nD37wg67Np4i0h/vuuy8deeSR6dRTT83t1Y033pg+85nPpHXXXTfNmDEjP+ayyy7LhRmDXzjhhBPSN77xjVyIyciSe8GuuCz9YO1x6WWb3jN8Dxhpi5R+kAmpJ2fWblLj1kdT+tCB2febZykTMm/PBM2BN9e+LIDoecue2TF4oaquPxppXEqvyarfPy6tZSrjygdT+vgh2Xf/LB3b7pQJsTetc2la9x/bpLvvnJT+N2dOLQfto+tF2MUXX5yWWWaZ9MIXvjB99rOfTT/72c9y8VBOv/nNb3IDMqeNhYS3aNy4ceklL3lJfv+vf/3rg/f7zne+kxZZZJFcxCy++OJ5QT7zzDPpySefTH/729/S6173uvw4xE438tBDD6U//vGP6aUvfWnuRezWfIpI+8HLdf755+c2bffdd6+cQeCYffbZJ/3kJz9Jp512Wu1TGSmmPvrfNP6AI9KnNz41LbD1jPaIsC1TWuXElO6aVrtJjSlPp7TaqSm9FA/XZil95KABYVPkqWdT2vbKlBbGY8ZxpOx6uXArJoRQWaTxWfm4TBAOeq54Nv7PZ1XXYMqxcO4rd0lp3YtSevyZgbydfVdKS2d5zs8v3ov8tdNrl4mwV2z+QFp50yPS8Sedkp6dWctAG+kJEfbRj340vepVr0pHH3107dORBwOEC/6DH/xgesUrXvE8ocLI8Z///Gd6wxvekN72trelXXfdNT3xxBP554iw1772tenXv/51evjhh/MR6IUXXph79Sjfxx9/bndeRNs111yTG0SO477BY489lq644op00UUXpf/+97/5Z0wjXH311fnUK0KKPHHuWWedle66K6uZNfDgcb9IV155ZX6voCjCfvvb36ZHHnkkvz/3inwiQkWkO2HASTu/++670/33358uv/zydNxxx+WCadKkSbWjBmCFF5/dcMMN+WCRv/GKffvb386nIwG7dOutt+ZecewQ9oypyb/+9a/p2muvzacouT6etAkTJlQKN+5x/PHH58fx71VXXTU4SxBwf46bPHlybpM4huNPPvnk3DvXbDaDvDGVetNNN+U2ivySp1NOOSWfPg241oknnpiXB/cqw6zFueeeO5hXyq+Ku++5O/cMci/yjXeQ4xn0l20k9p7nwZ4WwX6TH74v2vgi906emP6w2a7pLZvckAmJNsSCkUoijDuTZs0Z8HItundKC2bHfP+UrDwGZqTTnFr2QoS9GRFW8zh97OCUPn/k3GnJ/VN6IdOmiChSJq7evd/zj1v2sNq1ascxnfjZIwa+wyuH0AoB9a59U/pc7bz3Z//HG7fOhZlQLYgw7rvguOzfAwaO+3JWjT+XXe9lO9fuUSyHeU3ZO5h/66fT+9c/N227697pqenP9aHtoqdEWBiL0YAYqb/85S+5p+vLX/5yuu66rMaWoEFuu+226V//+tegwEE4IcLe+MY35vFWp59+evrxj3+cX4eEYCMuI9z/GLfPfe5z6UUvelHu8i8aIMTQBz7wgfTqV786HXXUUflnNGQ8glz/z3/+c34Prjv//PPno1bOJ/aDmLW4J2mxxRZLe+2112A+MQqIsJe97GX5Nc4888z8nPnmm28wn4yQI1ZERLqLGAj+8Ic/TJtttlnejt/73vemd77znemXv/xlLqhiZoDOf5111knf/e5384Eb52633XZp9dVXT//+97/zYxjI4fXae++908yZM/NBHVORzDIgkBBjxesjeEJQ8O9tt92W28x3vetd+XH8+9WvfjU/tyjEEI4ch/2iA2KwyvHveMc70ve+973BeLR6YJMOPPDAtPLKK+d53XPPPdOyyy6bn08ZcD7p73//ez6Ifvvb357WXnvtXKwC16YMeP5PfOIT+b3f85735FOzCDlEYjBn9py0/Q7b5yEb3BN7v9RSS6V3v/vd6VOf+lSe/7DZlClxwDzzBRdckH8WHHDAAXl+EYv14pYn33ZjWm3tf6aXb35/tSCYl1QSYc9kwuqJmZkoz6rFKZlOf++/Unrd7intmXVvs7JsPZOladn31Jqns/8jwl6bff/CTIR96eiUJlRsJn/xfSl98/iUXpwJsfkyUcTU5slzjwFyHs26knHZ9bgfom6diwbyAmdkGpnYtXwhQCbEtr9qIC9ADNgnD03pr1mRPlarRmdlxy+ViS+E3SX3D3zG8cfekQk2hB6etKrymJeUCbGF178ybbTZVmnGCPy80bBFWP2m0h4QYcRj4Y2isTECQugUE4KJBtDOqUhGjIgvpiIxPtynCoxVcR8RjkOEvfWtb03LLbdc+tKXvpTe9KY3pZe//OVpwQUXzAXORz7ykXw0hTFAhGFA+JzYs6III0gWA4FQItgfyBeijeNf/OIX5wKNa6+wwgq51wyR9n//93/59OkCCyyQn4u3C5G26KKL5gKQ/FKOGEG+J59f+MIXcqFWzOf73//+3CiN1GIHEZl3EFZ46LED/ItoQlwcfvjhg7Fe4b1HICGmiFfFw4UgIbRj4403zr1ocNBBB6VvfetbufeINo+Q+dCHPpR79TkWD09cH3tz2GGH5fYPsDsIKwZ2iD+Ou+OOO9If/vCHtNpqqw0KPcCGrbjiiumb3/xm2nDDDXOvPsdjEzl2p512yj3+9cCLj41dfvnl87AQPFkMKllwwGdcm3zgqXrwwQfzWOGVVlopH4RicxGPDDi/+MUv5oNb7k3ZIVJ5Xrxj0ZfQt1BGH/7wh3OxiIjimpQnZcIzh/ctrsHMAgP0AFGHWEacMSNRjztvuTZ974+bpAW3fHz4AfmRaiLs7icG7sE05E2PZAIr67ImZXpi+axbedd+KZ1254AIuz8boyPY8JTNzP7eJssuHqovHpWJxJqQQ8AxLcg1ggvvTenTeLrGp3TChOe8aTOyY2IKER7JhNifzkvpJTumtHYmqkJonZvp448R41UTYTtfM/A5HHJLSsuURNjpWX5XPzOrs4U4ttMzYYZ3bQG8YO2ckszy+uoNbkjrbbhxmjGt/T9p1BOeMEQKImLhhRfORyDlxGhnk002yRtnu2CK8POf/3wucrbffvvnudTrgQhjBIbwQXwxAsN43XLLLbnHjFEkz0J+GdFh6DAcQ/GEIex4V4gqpkExekwl4uXCgL3yla9Mb37zm/P/8x0Nn5ErxpqRLVMJuNHJG3lBeGE8EHHkE2NFuSLQWAHqtKRI94Gtxj4gJoqdO1NhiAPECEIELrnkktwGbLPNNrmNwb595StfyW1E2Da8PNgHwh0QYXjxsb1rrrlmPh0XwoTQCkQexyPoOHbLLbfMvWzYkCJ4j/Buhf0CZjSwXdgfxExcl/uy0AnxiMCsB+KOazLYZFFUePcZtDJA5Tkpjxg80skhLhFjlA1l8MlPfjL3ohUHmIhDxBnCMMI/mPKkH6AcKMuYGUBYIfTwkEXZM6DGE0dZFAftzEww4EXElacpi+Qi7A8bpwW2nDZiIuyBrKiOuyMTspnGRQD95fyUfnRaSrdn2X0y63r+nenxGx99ToRtnlWfT2dCbd8bB85/eEZKG12S0gcOGJge5HowcWpKvzorpa8fm9KtUwY+Q9AhlIjd+ld2PtdEnOEle+teKf3unHn3hCH6LrlvYMoUyDfTkfn57ZqKjJSJsIXWz0TYBhtlIqz2cG1kFEXYvPnMEGGf/vSnc9HRKH3/+98fdDe3A6Yf8Q4xCsRDVXRRN4LGt9566+V5wpOE8QsYcWGoED2M5DAe8yLCMAqIJ0a/xDUEjNoYeSLCMGYxwgWmADBSjDoRVWGomX5ceuml888D4idwnSMkMYhFgyIinQdvNh4rQhOYISjCrACfITyIF4X99tsv/xtvF94gPsfuMDDkb7w7bKuzUnYM7R9xhVjBDhCqEHAsHjC85gwAwy4ijBjclWH7G7xVnAPkDTGEiEPkFcHLxIpywirqecK4P955FkMxQAxRxOc8C4IUj1oRVnsyZcszYz/5Px7BstDDlm600UbpT3/6Uz6oBZ4dj93mm2+e/x3g9cKWr7XWWrldB2KWWehQnKIEYs1WX331fMq40WD+ORHWwBM21DixkgjDm7VN1sVfV3v0w29NaZ8bUpqeZffe7Bj+f9VDKc3OuuuZmWjaOtPU7/tXSh9i6u+QAY/UL7PqsPf12SDgwex91h4TEfaLM1Jaav+ULquFTiOQmKo89JaBqcdPZCKLa3z4wJRemj0HnrChijCmNAHvGh45uPPxAUG3IGXTbgFG6h8RNm8gwpi3Z1qQiszohXn3YmK+HXc3DbweNCpGfVyDkRKJRsFIrApGZRgpBA0NMEZbzUCwIFwQWhifohDCU4dwev3rX58fg6EpijCMU3Fqk7gC3ONlEcZoDxGGwSjGbOEWZwqVe7Oqs3itMhhdRnJ4x3CrlwUb0wJ4wtZff333EBPpMmj32EIGXWWbjR1EbDEFh/DADtCO+RtvDd/j7cabFLFLeOt/9vOf54PD6Zmtwz4wfRlesACbxWCRFetnn3127dMBTxviZZVVVsnvEwn7hbAKDxkCj5kCvGDFbXEQLdhZZjWYDkRUVRHPTZ9QXLGJGMQzh/3DoxVguxigI454DqYuCRXB089nxbwyxUpcGR6rmFVhFoQ+g34owHPHABk7jFAlrwxsmXJEtDKbUIR3gT3FA9goZKYlETbUVBJhiCXEz3n3DPw9Ifub6Um46dGUNrwkE42ZiKL08YQRw0Uw/dKZcNooK4Idr876oApnHtf9SaapX5wJlj+em9LDz3VLOYi+cVkV2PKylFY+PqUXZYJpzWx8EFtnMB3KCs0QYcSiEZMGRRHGdGYZPhuXNYE3jR84t7IchpMUYRfnnhoC8xn5zSsYGQIqecZIr3nNa+ouvcarRuPlOIJVY7RTBGNG/hCA0bgQYRgyVk2WV1QidH7xi1/k21dUiTAadFFIMgrDWJRFGKNfBNJWW201lwjD7Y1hQThiEIqjsTLF1ZEY22I+MZQ8uyJMOsm8+c7HBqxkZNoLO1IeSOLRIeicgSaChAEkbZwFQtgn2jrnFeOZsINsqYMXChAsTPcxmCt6wpmmw7Zw7RBnCL2f/Pgn6Wtf+1ouYCLhjcdjRoxUTO/Rv+CJ2nHHHedaJY5nHnuEbas3MAaeDbHFwLEotrBZhFQwHRheLLj55pvzWCzySx4QcCw6QhjiDYu8Uj7E/vK8LFDADmOfseFcE9saYFfx8DHdywpToBzxiiGKix42BBqhJ6xCrVrcVWQ0RNikzJSzUSuxVHi/mCIMj9Opk1P6QtbNXFATaIgw9uZimo+A9+Ce7Fo7Z2LsqOz1x/Qg12XqMUTU14/LRNZ5majLhNOxJQfp1VlVWO7wgQ1XY7XjBcSUZZ/l5281EBMWnq56IuyB6c95xhCT7IeWizCnI9tLUYSxLHheYdSFYUJQYYxIeJKImaqC0SNB7Ag14rjwuJVHZ7jFcatjOHCtMxrD4CHCEFoIrqKHqUqEMTLlGgTDc16497kXozCeu7gyFBHG9CzXYMqh6O3CWBJ7wCIGvHC4zAO8W7jLeeEYKQxFiDAMTTGfijDpBhRh9aHTx5YgJMrTgIQW4NVhkMa0Im0b0cJ0I/YF8YSwYCYgPD7EbiGOYiqPfoCwB1ZIh00CYqQQVf/4xz9yUUNgPtf99irfzgVPEYQVdgg7i6jBpnF9BorYs+J1mXlADCGEiuKsDNOe2C3itrBpAf0EQgsbX7wuAhFbz3MgnvBKEVPL/cpgPym7GNgiBvEWYgMpxwAhyP0RrREPhveO98F9sOsBghdPGt/hXWzEaIiwyUzdnT0Qz4VwChBjeJPeOH5g+wdAhK1/8YDHKsQOHi5EHHuLrXpyJsprPoM7Mp3O50w1fjurQitlKRdV/0zpVVk+tsuKKY5lKpHpSaYc47o3ZLr1q8R0bZHSonumdOZzXddcIiy20eB51svyttf1A2KNvO6fHZd7w2pCsLI85iUpwi5OH//4x3NBQMWnUREYWk4ch9AqBloOFwxdbPWAR4pRYtwPQcMIi+8QPTR+GioNuFURhmFCBDKC5DoYB0ZWTBEwXYD45POFFloof1EQIoxYtfIvBPB/jACijXMwfuSVMsPAcS2mBzAcGBymDxRhIr0H9g47gEgoCgoGgezt9b73vW/wp4bY+4/B5w47ZD17BlODEaiOYGAgx1QgbR5vDX8zbRfxTcXBJwNPYqRYIYm9weYhRsoxqAzyEHnYbmwSYBsJCWFBQFkEcR+mMonfKoqoMkwDsngAT1TMGpA/8oOIZMYgZiX4l+Ow4TGLwuwCcWPlQTULFRCqXCNWNjKwxmPGsUUQsXi2GPBGHDLHUF7FODdEKEKYaUueu1nfNBqB+fy7xpkD+3OxmjC4e1pKPz1tYOrxvFpodVGEsaoS7syOWzsTcAisonfs5kdT+u05Kd8AloB8eHzmwPTmsvuk9OPs2hGwjwj7TSYEN/73c8KMhQKIQIQY+5exTUZQFZhPDBkrIVk0wKICmJgJzJ9nVX4BYsPa+XNGuQi7ceyKMEQE+4SRt2YJN3m7V/LR6IkzYIqv6p7s18XILBojgoXGibjBMBVd4/yfz/iOYzBK5BcXOHFixetyv/iMuK1wezN9yZYdxMhhsIoiDBiNYnSYwixej4RwwygwemWLihBmGJ9iPnG9MxXBdwjK4nSEiHQWRBJiiEEbnjCEB3Yb28BAEeGA8AnvEx51VvERw4UwYQCJ9x6hxd8MXhFpiCnOQTww4MWzVJxC475cH/HHlB3X5nwEBrFQ3JM8cA6zCPzcHHt0HXLIIfn5sYUD9yp66bkuoRjEZZX31yqCrUNUkXemT0PUICS5LuIMT12AbaV8GPhGnBb3ZeEUnyHMyC/hJNhMturB3vNc5IkFWYiyYsgKz4vXC2HFTEQIRmZpuD/xbsxucF0WCrCAILa9aEYuwvItKqa2VYStetJzMVqIqTXOSulFmbDY8aqBz4Age4TOwuNTuuw5LZ3+efnA1CLbTpRh+wmEGrBq8vfZI7IH2E6Zvi6KqCJ43I64LaXF9srul1ULtqaoougFP+zWlD51WErrXZTyfc7gonsHFgG8dpeBqcs4/tIs72zeukA7vWFZWb16g+vTehtukomw9veFXS/CcA8jgvDu4JlBkFQlPD8Ym3aLMBo6LmVGdWyREfdDBLH6kRiDYtA+IgwPFMYHN30x1or/8xnfcUzklc9xw3N9rotYIr6ABQcspSauIqZiEVmMJIlrYPRVFmEYCdzlxFxwTOSXgFf20YnRI4YWgcU2GgjCYj4RlBhk8sO0Q6PpAREZXbAbtH3ij/AoIRyIT6LDR6BgK0IcsBqPNozdYXoNW4UHDCGEVx0QDAzItthii/xvpvnw1BPLVAyex3YgPBigFT1ZDOgY3C2xxBJ5HthTiwExU4941xgsAh448syqyuKUHbaI+zFFWvSmlcG7ho3HNkU8GnB/xA+fl+0tQpJrcw8I0YkQQySSX/7l/OKvAHBNbHJ8HlAGiErEGQ6CgHfCbAhbA3FNZk7wPLKwgelbyrgZk2+/Kf34b1ulV2x+X7UYmJeUibAVs66DoHuEEd6oH52aiZRM5BGg/2D2GvgcYfSOfVJ6Qyai2MSVzx7JBNtmlw3sE8amqKx6ZDUjqx6nZdWLH/smtgyPFx6trTPpwD1fnomWDS7JBG/WbXAsMWfsKYYHjDgyNnPFU4VQWvmErF7UrouoI5HXMycP7GNGPvCMsYfYnzKRh8eOz07MXskH+e3LzQZWbJ6VaXquwUpJtsrId99HiJXLYx7Tm9e/Im28xbju3Kx1pKHS45lhhNMoIU5oaDSykYBGxtRh8Z40zmJgPNCImfuPvbsYUQX8n8/4jmOK7mkafVyfURveJzxWPDt/hxDCqPIZxyK2ii71Ihg5DFXklanV2FgRyAtGinLD8BXzibDDUPEdMSPFfIpIZ2G6jNWFeKuwI9hI2jhbIfBvcToPe8gxtHHaP20ZMUP7DnvA+fwdQoXPOZ6Yr6Jd4FocgzepvNUCtggPEHkg3CHsBvYugvIRgNwH21a0W9gbjiM1st8cx3U5rjj4DFvGtct2jAFl2dYC10FIRn4jj0HYQI4rXpPrYKsRqmXbz3PFNUlck/LiGo22pgjuu2tSWnPL8WnRTa5N823zbHt+tmjblF6VCZL37DfgIWKHfH4Me77s2q/PBNf79x/4fNG9Bn56aMEsIcb4bInsu/jdyPmz4+Pz+I7z+Z6/2b2evb/ye2YCi3u+t3bPwZSdM/hj4LXEasp3Fq7LMYvvO5Af8sx1F8nOeelOtfxm+ec4hByfIbTIM541juV88oTIbIsnLHtufsfzAxucnXYYv196eiz+bJGIiDwHK73xMOF5QRBIf/D4lEfSvoccnZbf6MS04NbT2yPCSAieLbPEj13zb3iIiJuKz/mZH0QLid+JjGMjtoprxOfF7zivfGz52sVz4j5xXNV1+ZsU53MOx5Hv4mdchzIqXoPv2+gBY1r4VZvdm1b9x6Hp1NPPGJs/4C0iIs/BLvH8biExR2VvTOtUe9Clc8x+dla6/uor04/W2jK9YpPJ7RNhpnlPmQh7898uTBtstnV64N67s2bT/pk2RZiISA9BLBexqIQpzHv4hSKsG5k25eG03Q47pmXWOyEtMO7p9gXom4aesrJ/+ZYPp6+vs2864uD9M/01MqFOijAREZEuYPbsWemG669La2+xc3r7+pem+bd7ViHWiZSV+Yu2eTJ9+G/HpR122zvdfXdhP4820xUizDGZiIhISnNmz04nnXpG+tEG49Oi61+e5tt25oAQc3py5BNlnKUXbv1kev+6p6c1t9g9XXHFyGoiPWEiIiJdxLOzZqZjTzgp/WyDXdK7NrwkvWjrqekF284ZFAmmkUnzbTMrvfifU9JH1z8l/XmzndOl/740exsj6yZShImIiHQZM595Jp1/4cXp71tsn7667r5p4U1vTvNv/VSab9zM9AK2sMjT7ML/Ta2n2bngIr0gS/Nv80xa8J/T0uIbXZZW/ftu6Z87jE833nRzml3YnmSkUISJiIh0IQixO2+/JR18+NHpVxvumFZac7v0xfUPTR/a8Mz0ng0uTO/e4KL837nTBRWfzUviOu26Vnclyu3j6xydPrbusemjG56RvrLufmmVNceltbbcPZ1y6qnpwXvvHrFA/DKKMBERkS7m8cempIm33piuuOjcfJpy/EHHpO32PTJtu+9R+b+moaXt9zsmbbTltukf43ZK+x5+Qjo1E17XXHZhunvSHWnGCGzI2ghFmIiISI8wfdrUNOWh+9J/75ucHs4S/5qGlh65/6404dab0qTbb0lTH3kwPfPUcz+jNdoowkREREQ6gCJMREREpAMowkREREQ6gCJMREREpAMowkREREQ6gCJMREREpAP0lwjzRyhFRESkR1CEiYiIiHQApyNFREREOoAiTERERKQDKMJERESkt+nRcCRFmIiMWQwjFZFOogiTlhmJDstOUERExiqKMBEREZEOoAgTERER6QB9JMKc2Ooclr2I9BmaNWkTjarS80TYHXfcUftKREREREaK4447bm4Rtummm6aDDjrIZDKZTD2XDqz4zNSxdGAtVX03QunAis9Mw0snnHBCmjRpUpo4cWLuqGpnOvTQQ9MSSyzxnAh75zvfmZZcckmTyTSctFTFZyaTyWTqubTCCiuk3XbbLR199NHpqKOOamvCEzZ+/PjnRNg555yTHnvsMZPJZDKZTKYxn2688cbcYzVlypT0zDPPtDXdf//9aY899nhOhN1www21mUoRERGRsc1DDz2UjjzyyPTUU0/VPmkfjz76KF6250SYW1SIiIiIDHD33XenI444Ij355JO1T9rHf//7X0WYiIiISBVDFWEPPZ3S47NqfzRBESYiIiJSh6GKsAsfTun2J2p/NEERJiIiIlKHoYiwJ2aldOQ9KV2QCbFn5tQ+bIAiTERag22f3UVcRMYYQxFhV0xJad87UzrkrpQmT6992ABFmIiIiEgdWhVh059N6ah7UtplQko735HSJY+mNLvJwFURJiIiIlKHVkTYs3NSunpqSvtPTmn3iSntlqWj703prhm1A+qgCBMRERGpw4AIO7yhCHvy2ZQOuycTYBNS2mvSQNot+//5/60dUAdFmIiIiEgdmnnCZs5J6YbHU9rnzrlFGNOSTE/e12CPV0WYiIiISB2aiTD2BDsiE1t7ZsKLFCKM/++RpXMeqh1YgSJMREREpA6NRNisOSndPC0TWxNTGp+lEGCR8IYddncmtp6pXlyuCBMRERGpQyMR9kgmrgjA3zMTYKSyCEOc7X1nSuf+t3qlpCJMREREpA71RBii6sbHU9p1woDYKguwSHx/4OSUHp35fG+YIkxERESkDvVEGL8Redx9A6sgmYpEiFUlvkeMsYv+06Vd9BVhMrI02ahORESkm6kSYXjBrp06IL6YbmRlZKNEkD7eMIRbUYeNigizHxYREZFepEqEPZCJqcunpHTRIyld0kK6OEsci3Cb9mztIhl6wkRERETqUCXCZswe2JqCf1tN07M0NTuHFZWBIkxERESkDvViwtqBIkxERESkDoiwI488Mj37bGEesU1MnTpVESYiIiJSxX333ZcOOuigdMUVV6Trr7++rQnNNX78eEVYv+KiCBERkXnngQceSPvtt1/uDTvuuOOen46t+KzFdNJJJ6U99thDESYiIg7cRMpETNi0adPSnDlz2poeeughpyNFRKTfUE72P7zjkX/PIcKeeuqp2ift45FHHlGEiYj0BwoPkXbj6kgRERGRDqAIExGR0aPbHGqjM+skUskYFWG2OhGRjqAI62MsyKGiCBMREZE2YL86VJyOFBEREekAijAREZEOov9o7KIIExEREekAijARERGRDqAIExEREekAijARERGRDqAIExEREekAijARERGRDqAIExEREekAijAR6TD+goWIjE0UYSIiIiIdQBEmIiIi0gEUYSIiMjZw1lu6DEWYiIiMDRRhLWOk5uigCJO5seWJiIx57ApGB0WYzI0tT0REZFRQhImIiIh0AEWYiIhID+LERe+jCGsrNgcRERFpDUWYiIiISAdQhIn0KfplRUS6G0WYSJ+iCBMR6W5aFWHzYs8VYSIiIiJ1UISJiIiIdACnI4eFEz4iIiIybyjCRERERDqAIkxEeocx4nzWxy4yNlCEiYiIiHSA3hBhDgtFRESkz1CEiYiIiHQApyNFREREOoAiTERERKQDKMJEREREOoAiTERERKQDKMJEZMzD2h/X/4jIaFMlwtpljxRhIiIy7/SxOu7jRxvTDPWd6gmTvkGjJtL92EZFnkMRNlTs6bsWX41I99NNbVSbIZ1GETZUbLUiIn2B5lw6jSJMRKSXUDWI9A3dKcIcnoiIiEifoydMREREpAMowkREREQ6gCJMWsdpYhERkbahCBMRERHpAIowERERkQ6gCBMRERHpAIowERGRHsQw3d5HETbWsQWLiIh0BEWYiIiISAdQhImIiIh0AEWYiIiISAcYXRF2hSJMREREBBRhIiIiIh3A6UgRERGRDqAIExERkbbjPmbNUYSJiIiIdABFmIiIiEgHUISJiIiIdABFmMgYxDiNEcYCFpEWUISJiIiIdABFmIiISB+gA7b3UISJiIj0AYqw3kMRJiIiItIBFGEiIiIiHUARJiIiItIBFGEiIiIiHUARJiIiItIBFGEiItJbuAxQ+gRFmIiI9BaKMOkTFGEiIiIiHUARJiIi0nF0741FFGEiIiIiHUARJiIiItIBFGEiIiI9g9OW/YQiTERERKQDKMJEREREOoAirI2ccMIJacstt0wbbrihyWQy9UTaoJaqvjOZ+jVtvfXW6bzzzqv13p1DEdZGPvnJT6a3vOUtafnllzeZhpE+V/GZyWQymdqVFlpoobTqqqvWeu/OoQhrI4iwrbbaqvaXiIiIdCO//OUv00orrVT7q3MowtrIpz71qTRu3LjaXyIiItKNrLHGGun//u//an91DkVYG0GE/fOf/6z9JSIiIt0InjBFWJ+hCBMREel+FGF9iCJMRESk+1GE9SGKMBERke5npEUYv2vQym8bKMLaiCJMRESk+1GE9SGKMBERke7H6cg+RBEmIiLS/SjC+hBFmIiISPejCOtDFGEiIjJmaSUIqktQhPUhijAREZHuRxHWhyjCREaIVpcaiYi0gCKsD1GEiYwQijARaSOKsD5EESYiItL9KML6EEWYiIhI96MI60MUYSIiIt2PIqwPUYSJiIh0P4qwPmR4IsyoYxERkdFAEdaH6AkTERHpfhRhfYgiTEREpPtRhPUhijAREZHuRxHWhyjCREREuh9FWB+iCBMREel+FGGjxuitOlSEiYiIdD+KsD5EESYiItL9KML6EEWYiIhI96MI60NaFWFMkLo1q4iISGdQhPUhesJERETmndFyUCjC+hBF2Eih31BEZCygCGsfijBpE4owERFpH4qwPkQRJiIi0v2Mrgir70hQhLURRZiIiEj3oyesD1GEiYiIdD+KsD5EESYiItL9jG0R1qdx1oowERGR7kdPWB+iCBMREel+FGF9iCJMRESk+1GE9SGKMBERke5HEdaHKMJERES6H0VYH6IIExER6X4UYX2IIkxERKT7UYT1IYowEekF/DVWGesowvoQRZhIj4IqUZmIjBkUYX2IIkxERKT7UYT1IYowERGR7qefRFg9J74iTERERLoORVgf0ssibNasWenOO+9Ml19+ebr00kvTDTfckGbMmFH7tnPMnDkz3XPPPenaa69Nl112WZ6uvvrqNHHixDR16tT0v/8ZyNNvzJkzJz300EO5vaAu3nbbbV1RF/uVZ599Nk2ePDkva9rX7bffnp5++unat/POI488krdbrnvjjTemJ554ovaNSOcZ29ORfdpv9rIIe/DBB9Mf/vCH9MpXvjK98IUvzJ8FIdYpEFfk6dBDD02rrbZaetvb3pYWXHDBPL3xjW/MG88555yTZs+eXTtD+oWnnnoq7bXXXul1r3tdXhe//e1vN62LmJShmhWMHoOPbuCZZ55J06dPr/01ujCYWXPNNfOyfslLXpK+973v5YOc4XLkkUemJZZYIr/upz/96VyMSX9AXS0K9V7s0o0J60N6WYQ98MADafXVV0+8J9IHP/jBfBTbKRiZ//Wvf80FF8Ir8hXpfe97X7rkkktqR0s/gQjLDEd60YtelL/rr33ta22ri4h7OhAEwR577JF7fToJgwg8vQcffHA6/vjjOzKoeOyxx9JvfvObwba14oorpjvuuKP27dAodsaHHHJIPnjimh/5yEfSxRdfXPtGehVmJhgQ7bnnnrnXtJdRhPUhve4J++1vf5uPhHlXH//4x9P1119f+3Z0YYS13377pTe96U2DHcP888+f3vGOd+T5WmqppdIPfvCDfJpK+g9E2Pjx49MrXvGKQVHQrrp43XXX5R7f97///bmH9eabb659M/rggTrwwAPTZz7zmfThD3847bPPPvlU7GhDPv74xz/mZb3AAgvknscJEybUvp13DjvssPSud70rv+4nPvGJ9O9//7v2jfQihKv84x//yAfoX/nKV9L5559f+6Y3UYT1IYqw9nDvvfemX//613k+SHi9ttxyy3wkfdVVV+Vxa7fcckveWUv/QfzXzjvvPPj+v/jFL6Zrrrmm9u28g9igfb7sZS/Lr7vqqqt2TMjjkcOTiwAjL29+85vzgUcnYhxHSoQddNBB+XNxXQZOF154Ye0b6TUYGDNgiPe57LLL9rxnUxHWhyjC2gPeCrwf5AMPGB0ElUnGBgSKE8jNlMcuu+ySTjnllDzIe7gw5Y4XjHpF+uEPf9hREXbSSSelt7/97Xle3v3ud6d//etffSXCmNJkmpV3eNRRR+XlL70JiyrGjRuX22PqyQorrKAIaxOKsDaB6VSEtYcrrrgid3eTD+LBtttuuxGpoDK2YMXlWmutldcrUqdF2GmnnZZ7eckL03b9JsKkf8D+7rjjjumlL31pXk8UYe1DEdYmFGHt49Zbb03f/OY383wgwpiaEhkurEBcf/3183pF+tnPfpbX+05BJ7bkkkvmeXnve9+brybsBIowaQVWLMdUPoPkTvUP7UIR1oeMFRHGaiq+Iz7rrrvuSjMLy/yJHSCmi+kk3jcJUUVlaBR0PGXKlHzVDcfvv//+aZlllhnsFH7/+9+n8847L/8u7tlsawGuxzJ7VtXFecSRkbdWY8mYFmPlGueyN1mxw3744YcHn5Hgbr4rLtmeNm3a4PeTJk3KBUDAcTQ8ypDvyePEiRPS448/Xjvi+XA+eY8yIkaK6zY6pxHkgekhpox4Nq5J4v+sGOQ7VkINFVb3UTZclzxGXvE4cc1iOdSDekJ9iXxxreHsE8ZUJmV9xhln5N4v6hWJjuToo4/O78E74B0280SR//vuuy+vS1deeWV+LtemrrUyZUq58944b6eddhqcjnzrW9+aNtpoo9wLzHe8g2bPzPvBu8e9mcLnPBL5os2Rz1bq+kiJsGKbpo0MpZOh/dDOo43wTFyDOtTqtiK8S8qHekQdLAtu2g7PGfWMe9HeG5UZ+SJAPexKnFNs+0OB+kQeqePFd0ieeIf333//PF8beLeU40033TR4bRLvhXqILW8EZUS5X3DBBekvf/lLevGLX5zXk4997GNp7733zq+FfcSeYS97CUVYHzJWRNiJJ56Y7//z6le/Ot9fiM6HzpdtJQgu/v73v5/HuLA/EI2WBouRP+GEE/L7VImxY445Jn3gAx/Iz8H7Nd988+X5INEx8DnpVa96VfrTn/6UV64yGF0EAPuHbbjhhrnLnBWWnMdKO67/ox/9KI81aiWwn+dad91102tf+9r0hje8Ie2+++65QcRYYpCYQmIbBYKOWUhw+umnD4oM8vDRj340f/5f/OIXuaGmjDD6GC8a/2KLLZafTx5XWOHz+eKDq6++Zi7xwzk00gMOOCAXEHTanMPWHV/60pfyc8hPq4KJToTjycMaa6yRlltuubTQQgsNli/PigAmz2wxQH5b6fQwwBh73iN1gutyLa5J2VGfMHo8B51Lo46F90L+OI/y+853vpN3GvMCdYIA8divKmJaSPyfusbniKAddtih7rOSX4QRU4Y//elP89WMTM3EudS1v/3tb7nQazTgoDw5H49CsZ7zb9Rz2uA3vvGNuu0PY02nSrwVA5TPf/7z6S1veUt+LolrL7300nldx3tBJ9qovEdKhBEHRtvgHX72s59taUsDOn0W3my99dbpW9/6Vr7FBc9EWeM1pF6ydyDCs1mdp04Sj0b7WmSRRXLRy/ulLBA5W2yxRZ6v17zmNXmb4l7f/e5387qH0CpuF0K7pt0QF4V455pxDvYOu0c7bXV1K++Q90t7wO6yj1rxHWJb2dYDby3XZhDTygAGeEbE21lnnZWvZsTW4GmNa5PvxRdfPH31q19NG2+8cS6wEMxVnH322XneOI+6EW2H+hpth/LDHta7RreiCOtDxooIo6Ol46Ehcg6dL42VRs1mr8WOLhKGmE71Jz/5ST7aL8Ny9vAKNEvsZ1Ye1dLZsgSe6y+88MKDz1FO5A0hh0AixgHRVg8qMIIP40P+6aR5zpVWWik3ZMXr8jfi49FHH83PpTN+z3vek3+HeGKke+655+bCiTIqisxICEXqEJ0XHQDPxDms4sPQFY1g8ZzPfe5z6dhjj23aKeGZY+814pDIQ9X1ImFguSfigvfdSLBi9Ame5/2H8Kq6Jvejc6FuIWjrjcK516677jpYxsPZJ4wyZOsH6ms5P8VEedB2q0QYdYQ9xVgRhmCtV27UEVaPsX0KKwGrPAN0pojKqvOLiXdatSKUgc6mm26abxNAXnhPVeeTyCfHfPKTn0z77rtvXSM/UiIMEc9Ag+u2sk8YYhEhywDu5S9/+VzPEinqEOKJ6zfahZ/y33bbbXNbQDshthTvINuffOhDHxqMbypfn3rPhrVhp9hXDu889Tam48rnvP71r8+3PMFjR51rBGWL15N22Owd8h3Py6CGPDTrqPGe4t0lnIOBWj07GInnQUhi5xiYliFukbKqOjcSNpVBaNi+XkER1oeMFRHGppJ4gei48KYw2sRIcB4JkUPDxVsQS5oj0VFhrBjJF+GaGA7OYw8nDA/HI1YWXXTR/FqM7jHmG2ywwVyeMAQL59NxlcXRO9/5zlxw4QUrG11Gnn//+99zEVkFne/aa6+dPyfGEjGFhyJEJp0F18XAcy2ERQghRqF8x7Gch6j4+te/PnhvdoPnWfEUcH58Tlp++eVzTxrChi0MQrAhLimD8DIWz0HcNdoCgFE8+eBZiudhqMkH75v80gEVvydRr1nJVzXKp8PBM8pouXgO9QjvE15QnrFc9nTOdIpVo2dEGKKHesSxiN56dbEZ5A+Bj0DEk1Ksj3ScfEaZIrAyY/U8EYYHE29ouR5TPykvni82JI3Eu8E7ddxxxz3PA0UHjODhPN5jlAvlxT541O/wYiGai8S55XdE3USU8Q55l7zT4vck8soWA1VCfaRE2OGHHz44EMG72mifMAQPHqVy/cSDRfvluXhfxe8od+wt03lVIMIYaPGueH/EA3J88X0hznkXeIZ49vgcO4I9RFThTSwOEDmW90QdLg6mEDS/+tWvcqFcD7ypHEP7j/NI5JF3SF541rB/xUR7okzrecQQi3jWqNPFfGGDqGtcm7pF/suDQO7HyuGyLWQQyKCBvPG8Yfuoc4hIrke9Y+ZBT9i8oQhrI2NJhNEAGaUhkGK0yzmMPPECMaVAQozg9qcRcwwJg4goKXZQ3J+RP1MWjPgoS47FMDLlgjHAULPTOYYsDBGdLPFijIzj+hi4H//4x7lBuuiiiwbPO/nkk3P3O0aueOwmm2zyPM8aIMLwHCEG6Fjx8mBo6VDosBnZc10ECt6i4k+98NwIR4wdHQlGnHMRK0yL4FGL3+nE84WhCzHG/RB7CAPKGFGGwGNzRJ6FZ6JDZbomOg7ELZ1MlWeATgovXXT4dOJM63ANypV80DbJy5lnnpl7ChA+cTzP8POf/zyfoinDZ3gNwqjjdWEqCQFJpxtlf+qppw6O/jmORJ2gHMrirp0iDPB+MP3EqJ4BQNwfYUbZk0cSHVAxL3jqNttss9yDG+fQ+W6++eb5tXguzmM6h7JE5NI5xbG8P6aoi9NadJR4fCjzYkwY7Yjyof7zHc9bfJd0cNw3rk9diakz3lm8Q86nTJnC4lmLnT3PW+Xt6LQIY0DGFC11OPJA/SdsgLZNGfN8tCmmA8M2kBBR2JKqeh8ijPdHXWZAxjRilB1Ty7w7yo0BDG2MdxbXRqzRSSNq8MxhU3gm9ncjT7RHro+4iXMYjNGhVoldwhvwYobA4l/qDPaOZ+MZuS7vkHeKB5d8FkU3Xla86mWoY7x3BGscS13F9mL3Is8k7AcDBIQTwi6Opyypx0W7TJ7xQvOsrCyOd4Stp+7Fu8EmV3mRuxlFWB8ylkRYsfGS6CgxHFUNERc5Bg+PCMciLDA+eBmqoJPCCMexGLp6Ln4qMAY8xAhGFjFSrxPBWOOuZ5ot8o6IpBGU814UYXEsBpnzq/JT7MAxqhjBOI+EJ4xOpcqjhJH8whe+kB/HaJOROMIPI0FHUQXGlI1Mw/vH9cveE/JJLF50hngamDooCsYqMK54JmL6BXGFd64Iz4Exj13Reb9MEdWbFiUeDfEax5MQHuVpyXaLsIDrrrfeeoP3pt4QO1MFHTjPFvU8vFtM+yKkqmCqkboXU58hXuvVRTr+uD7vhw6+HtQBdp2P69IZIywbQX4YwDB44DxECIOFMp0UYcSAEbcU4hJvF3nGA1UFbRQ7wwAkBAHe4qo2EiKs6MXEvjEgKXvigbZC/CBeI46lHVIeiDg84gSylyE/CN54TuzVOuus87wwB67NgAf7wXHknYFQVT6K0J5pr9EWEIYI+7L9wX7zXBxDol4h7hrFAtIe8fJFnrAjCK3iLEMR2mQMzL785S9XTpf3EoqwPmQsijA6BDoHxEUjMLYYsvD2MGLDKFeJGQRAcZ+wrbbaKj+/DEYWQx+eOAzV7373u5Y2hcR7VfSI0SGXO56yCMMAEYDaKA4lKIswpoOYtqsHxpwg++J0DPmjw6kH52y//faDnho6Ogx9EYQH08VM8VKW1NFW9/dBbEYHRmAv03pFMPB4PhG+HMOovdz5lEH08DuFlCXigI6jPAUyUiIMj2Cr+4ThPUNAxbQvXk0EWDNoR9SZiGnCC0onXRam1PtW9wnjPROMTn2i3PCeUX9bIRaIRF7Y7oXrFemkCGMgEb8agDAhprPRdF6AgOU8hBL1hBCFcicWIoxpfK6PyEC8McirBx0iU8ExsOH6eKmrvE8Bq5YRVFF+1JvyM1Cn8cwj8BjY4AVGTLUCx1H/ooyI7ytPSdI+qM+UBTacKfRmKx+B9hq/ThKD46oBGmVLWYYIc5+w9qEIayNjUYTRcOl06sVlFMF9TdwL5xGXUC/OqFURRp6JY4g8M9VXz2tUhuvhqg/Rw2iQTraYnxBhcQx5xpC2QlmEEQeCsW4EnVZ0yhg7BCXPWA/ySuONKS0MdVno4YWko6PzRYAgCKrKsgraa7wvpssYNRfBI0QZRqwO012sfGwEnRHCkk4TAYcQKW/t0GkRRrmSx/Dc0mnSqbVabtRf4hPDO0sHjaEtMhQRRoeLZwgvIp42pjEb1YsivA/iBbkHsWLYp7Inr1MijOfaZpttBgcR2BS8tlVlUIYBANOz4eXjGcuLN8oijOffeZedG3qHKAtCFsIzh1eTcuda9cCjxNQexzMopfzK0760Q6YZGRBxLG2pnhe2DPGctC2uj63jmcoDQWYVKG/aI3Gu3KuVcuQYpkgj78xAVHnnFGEjhyKsjYxFEcaIn86jXrBoESpanEenM1wRxv40GAOMB8fRkTTzxBQhziG8YRhd7oMACMoijI4EcdUKHBejV/JGZ9PI+AOxGxFfQueC0Wu0VxRlxzkxvUeHznTKcMFTgjDC80WMC9dGhBGjUzTsHEfcCt9xDJ4WRAL1hhimVjqBKjotwujgWDQQHTF1pJEXswzPTkcb9YZpTKabi1A2rYqweYEYITwh1I+YxkSE4G3tFhFG5xMxetwXD1Qrg7mAZwuhzH24X7H8yiKMAQVlXmVzAtobg4MQd9hBzmkE5yB+OJ7E+8Y2DRfyz4pDppAJB+Da2GdWabfijW8G9SAWCnBt7GhVSAMowkYORVgbGYsijI6X0WsjwxbgXYgOYbgijPMwjsS5cBzTZoiERiPWMnQ0TDVwD66BW77olSmLMPLUqnFFhIXAo4wIeC0GaFdBecTUEVN8CKp68VVAGXBOUYQdfPDBtW+bw7UxxJQtz4qnjjgPdm5n6hgRGWVTJcKAd8XCAY4hUX8QkogxgvGZ2kCU0FG1KjA6LcLiuOhwWLU7lC0yKFfeXaxSpB7QZoq0S4QhhOMdUneZRmVPNeLZ8OhgkyJ2qttEGG0pVtXSxsgDHh2epZVEIHqIE9o/A53iIKoswggJaNYHUU+5TogwPJplAV2Gc/DKcTxpqCIs2iHvgXcYmzLjmccDi82Md4hXdigiDJtDmXA87ZC6zbtlxgAPH9vfRDgB714RNvqMGRHWnvFlY8aSCCNGiOPocBttjVCkaDSHK8IwLqxsi46amKeqoONG8MwY/gg+J6apGA9RFmF0TvViiMoURRhTnYzam1EWYQiqdoswzqFhMkXJ9DBGHm8EnSRBv3RYrNqKmJhI9UQYBp6pzuKyfxJlSqdP3jDsrDLE80gn00yMdlqE0QkStxYdH/GCrcQpBZQRA47wEDJdzDRwseyGI8J4h3SoTDkh7vG6EUtFjBT3RJCwoi7acqRuE2HFKXvqC3Wfd4JHjDrZKHHMyiuvPOippa7wbnmWIERYTHcSD4bnpxFlEcYAoyqWrUhZhCFQmokw3iFeLq5N3WCBCs/OO6S+xDuMOhiJmYdWRBhtiGdlgMyKUhY7rLjiivngmUEhZUJ8bmw5QcLWKsJGHz1hbWQsijCeudlIMcDotssTFh11GAX2q2FbhKGAyMJwRxA1XrGikS6LMEaNjQJ0ixRFGEG4bNvRjLIIa7cnDG8Ooot3RueI4OLZ6Hg5v5zoBCIwvZ4IAzoTtgmIVVZViWtxT7YAII6P8uAdVtFpEUYd4F1HuSDIWlnsUQTBGQtGKDsEbztEGHlD0NIJ0gYRIZRTeCzLie+ifnebCGPhB4MnvkcM8AxDSdRNptA4n2dkw1HEaRAiLGIW2Uql2argdnjCmokwFgYQh4Xg4h0iuHhPRUFUTHwXC5qaecL4HE82A0o8fwg6nqUsyCNRjrFlhp6wzqAIayMDImzL2l+jQfNRc6vMqwjDs9VqY2ynCKPCEqAcXiw8cs1iN8pQQYsirCyyyiKsLNIaURZhrayEGikRRrweHR7LysOYFxOdGe+TMqcOEBPDvYmLooPgmEYiDHg/eETpwFZZZZV8tF2+TyRG95QJS/mryrPTIozAZKYgo4NngQTnDoWiCONfYueGI8KYdsS7RqcRAqGYyCsLR9jmhF+UYDBITB9TTlGnuk2Ekb/4vh2J2KZGIoz23ey5RlKE0Q7xiOORK+79FYl2yDtkkQHPgt3D288zRKwoIqieCGPPPsIAwjaXEzYFu44YJXif9sw7wLPI94hARdjoowhrI4qwxrRThGHQ6LTCKBC/xPWGAh0ro+cQYeXpxn4QYRzDNgWxDQCJTomfAiLui06Z6RC8iKzAI6Yo3gn7UEXMXTMRFjDVSDwLo3E8NniR2Mss9s4qJsqdn6nBCBXptAjDW8J0F3WP4+gQW13JFlDmIcJ4dlbDDUeEsSEmwjDyTp1EcP35z3/OBReeNuoCU5Rs+RH1BtGB+OacbhNhTJVFYD2ih/vS1tnsd6gJgcD2LMXFL90kwmhT2MniptLUb94NdZLnph3yDrF/xMbFViIMCoqrI6tEGLaKxQFFccfUI789yWbUnEObZCshVm4Wp23Zp43jDczvDIqwNjIWpyM7JcI4jxVr4anhehj9oUBnhZGK+Cc65aIg6AcRhvDAMxKxJUxPELDN1GSz2CwMdsR6tSrCyvDeeJ8IDMqSJfDxzkj8n++iw4FOizDaAuIm2gIbow5FlND5E58Yz8neULyXeRVhlCEejvD6Es/D/moIs2arkrG5sXCi20QYookwAr5n5SL1vZ10kwijMyQUIKYcqRvURQY+xbpfBfcn2J/zqkQYdoBFMDG1yztE3OHloi43go6ffHGeIqwzKMLaiCKsMe0UYXRWBJeTT45jBIjxbLYNRBFWAmJkMT5MBSASisatu0QYnfPcHXQzEUYZMS3G/fkeA8rUGg2zGXHt8GBViTA6HzxnGG28Zq3ETRHgzsi8KMTYALf447+dFmGIEoRqiB48TniYWgWRQ0cZXgnaCPWhyFBEGB117PVFPWU6qWr39ipYBYcA4txuE2HUGdof3xOXxN5xVdNs9WDqkT20KB/aJe21OLDoJhFG/YlfxCAx+Gt1sUdxQVOVCOP90aZi+pwyZxqzFVgoE+9eEdYZFGFtRBHWmHaKMGAjShpRjC7pVFs1bBhrOgnEDucSw8SUUXFU2uueMDohdtdGQPE98SZ09K2AmCXmLjqjsgjjX8qCzofpRupBeTPXetAR8q7o8Lk2U5bFjWw7LcJ4dsoN0cJxeGlaLTfAqLJrengfWZWGWCgyFBFGe4u6xG9BDmWwQR2Kn+HpNhGGaKecoh4gAJr9jE8RptfwENG+mD6mnIqewW4RYbxTtpsITxVih01bG7XtgHOZpoypbURQWYQxfc7q2Lg/76/qN0KroLyxoZEvRdjoowhrI4qwxrRbhNF5sMooOmtiIBAhVdcsQxAr03R4FjiX/YrKP/nT6yIMQcmPcccyfjrjVqd8mK5kC4AonypPGIsYWIWFCKYjZdVjK142poH5MeSIucI7V4y5GkkRhteNa5IISK73PrFVEb9D58SxrQgTxD17dIW4omyIeyt6+oByZAopjuPd8Ft/VSIMr0bETiEo+KmqZlNYwIAEkRNtuttEGM+AGIlFHNTTrMPI338zqGdsuxDxnJQP4QnF8usWEUadYGqQQRDfU5/4sXDy1wzEFL/hyjmcy/OWRRh1mCnzuD9tshU7hW1h4BT54t03EmHcN0QYXr1m5dLtKML6EEVYY9otwjC4xC3FXkMYEQxgs33L2EmclX/h6eAeBKmXp9N6XYSF8Y+fNWLKh9gifmalEUx1IYyigyNViTCugwiOneVZEk/HW5wSqoLplVjtRedCAH+xUxlNT1i9LUcQJuy/Fcv3qStM+RQ3862CzhfxGt4d3n3VT/Hwd9kThgirgroT5cUUKQsFmAZuBMaXvaeijsczdJMIA8orplqpCywgYfuSRiITLyA/Hxb1nvPwhDGwKtJNnjAWvlAX4hgWBDVb7ME7LtofUpUII4g/fv+RhA1hJW0jyBOiFXscAg872MwTFv0Dz1j1PnsJRVgfoghrTLtFGCAEWBUURpMge1b+ce2qKRtGluutt96ge5+03HLL5WKunJdeF2EYWoK3l1122fx7jC3HMAqvKk/Kiw4Qr095KwtiwxBGRTHB/ym34s8zUW/IQ5XQi+PZwiKm6vBgsGy/WPYjJcIwcsWfl2E0TzxRFeSV7+iUYrobIYqIrRJu5Jl2wfHhLaDeEOeE+KsCexh1BIHEKr8qARtbZnAc7xDPEZ1+VQwe5yMa6JRjk9JI3IPn7yYRxvQhm/2GN4z2i01hCq7qB6gRwQwG2JMuxAMecKb7ymXXLSIMiD+lbsQx1CXed5XnGAFKLB9TjDHAiYQIxxNaFGHUa7aViUETNhxbVU8k4YmmzIu/bUvi3WM7b7jhhtqRz0GeaNcRJ8mAayg/5dWN9LUIq5lpRVgP0asiDDAqeAfCQHAOnTtueTpBvF4YVp6PlWJhYEnEaRx66KG5IS3T6yIM6GARnUVRRYwTQghPD2WDUWfPLjqpGK3zzIgfPDB0jHiE2Hm7LGzpDPCuREdHYmqN60fZ0xES6M7O8zxf1DHim3i35am6kRJhdCRMv0THRj0gn3jiyCMeuuLzcTxerGJnxXPSySJyeG7Oi93Oi8IA4UYn2ijGiboU9ZxpX+oL06XUVURIxDdSHpRjsYyZumPbAt4b3+Ed4X0ioGm7dKi0AzpVhATvkHdKfS6Lm06KMMCTw3MUt1dgaxRi6fBQRx2lHrO6Nn5UnhTitco+dJMII39ct9gOGdiwZxjPzvvjOXmHLLwIO4Cg5x3G1DjvkWOK+6ExYCCP8RNQJGwhtpZ4S9oY5UB95W88j/FTTgygaF/UJ+ou16i3CAXPbZQ9go9BDO2afCOCqUe9hJ6w0WLuWYARRRHWmJESYYCHi6mmiH+KRGeIQS2PKPkcI0JHURxVFukHEQZML7Aaq/wTKHT8VWXDu6XDoL3SCfI9nTMGvGo6jmkTBFcY9kgYdTpWxBbvsfgdU6ScgwEqM1IijPKirhY7KxIdFnlkioh3XoS8EABOxxoesUh0qFXPhpeVazXLM3W6uAqTxD0QvAg/6kx4HplqQ6DF9Ggx8Q7Ln+NZQrSwAhGRwnvgHRJfxKClSKdFGPB87FdVFFiReL4QRcXEAIp6Wm9ar5tEGGA7GCxWbZhc1Q6pR1yXdljcywvxUH6HdOC0/eKUZyTsF/W03P5pV3i+mSqNNoH9JKYx6l0RFrEwsC1eA1FI3qkzrdrGbkERNloowloCQ0awNO+JhDcDA14FnVLEmtBhM8XUCgQih1HGKLCXUpUIw1hTlpEXOqpWRlkISTpvvBt4wqqMHZ0/4ou9cRp1CsA0EsI0zkUYtrrqiGeNPbYwpq247imPCJJFILHLejMRxjmUJecg3FjVVwWCgF2ymXrluHimSLxPyhzDhBEOzyCB08UpiHrxdtSfrLHnngo6x3KHQuIzroEhZyUg76sK7k3nGeexAq5eXRwqTJPye4t0OuU8Eo9U9X7pkC699NLcY0GnjAcjPF6RuBaiGy8GXqyqaaYqeC/E38V7LybKs7jaj1VweDMoj5i+KyY6QzyXCC1ipsJbQlxgCGSmwRhEFYPC8Yz94he/GLwOnpKqVaNDZSgiDGjjvJvwBEW9LiY+w3uD55EFC406Lp4RexziGc9hs+diqjYED4l7sc1LIzgHwRvnkHfCAKrg/lyfelQeMJJ4PgaqeDQPOeSQwWl93ieCh2MoU+xLefqVfGAPaF94ZWNaPBI2hXMpB/IQK3apVwiyOI6BV1X9xRbhDcNDWbYh2DrKqUq8dSuKsD6kl0UYhpjf/yP2BLHByLgc6BpgTKnAHMeIv9Vl5XSkHM95rNrC7V1vxEXsDccRR0EFLcexNAJvBtNIuO0xSGxciOFgNRXCht9uawU8FexETqA1eWFU2iwgOuBZEXCchwepXuxREcqDFYacQ0fEruvFzrIMZcc5lCXnsNqTc+qBEaVzYGqHqUHKhcS7ZDsKhAaen4Dr867poLk+x5VXkJZhaomfSCJgn3swlcI96FSY9kOMNhMoCA9G5xhI7su16tXFeYEy5Vm5LtNBUQ54Uht5ShC9rBplxSnvibrJeQgCno2OsTy12goIWMQH7zHywrXpUMvTv+SBmB0E2hprrDGYB8oaDw4DorLXGKHHs1GWeHNpG0Vxh/EnTpDveV/U82ZB461Aux2KCAvwTDM1jAecgSH5IvF/7CtCoJVyRqQwoMADxvnEwzV7LsoFcUc5cQ6e8Gb2jXMIaYh8ItYb/cYs75AYMexttC3KnfbL1B4DnXKHTL3DJnMsNq3R4gUGNzw3A03aEPWDes7fvJPyHnPYfuLsuDbHUu7FLWPK4FnHhlCuUV+pf/TvVYPqbkUR1of0sggTkZGBYUbv+AfaAwIeYRlT5YQtNJvWExlNFGF9iCJMROS5VY/xiwt4wvA+inQLirA+RBEmIjKwoAFbGLFDxGG2I85MpF0owvoQRZiISMpjiliRG7+4QDxXq/GU7WQsTgVLayjC+hBFmBTR+MtYAc8Xi0II6mdLDPZIi9V/bJHAaryhLK4RGWkUYX2IIkyKKMJkrMCqQ1Y+s41CeWsYNhplB3iRbkIR1ocowkRkLMK2L2zrgJ2PxAay/EJFvV+kEOkkirA+RBEmImMR9nHjp3fYKJbNZBFk7MPGPnaN9roT6RSKsD5EESYiItL9KML6EEWYiIhI96MI60MUYSIiIt2PIqwFem11mSJMRESk+1GE9SG9L8Lc2lBERPofRVgfoggT6QNsAiJ9jyKsD3E6UqQPUISJ9D2KsJboLWuoCBMREel+FGF9iCJMRESk+1GE9SGKMBERkVFmHibNFGF9iCJMRESk+1GE9SGKMBERke5HEdaH9LsIe/zxx9O+++6bfv3rX6e11lornXzyyenpp5+ufTv2mDVrVjr77LPT2muvnZfJtttum+64447at6PHlVdemTbeeOM8D1tttVWaMGFC7ZuxxdVXX5022mijvBy23nrrNHHixNo3YxsM8V577ZWXy1/+8pd05plnppkzZ9a+FZl37r333rT77rvndWvNNddMF110UW4XewFFWB/S7yLsvvvuS9/4xjcS75L0t7/9LRdmY5WnnnoqbbHFFmm++ebLy2OppZZK55xzTu3b0ePAAw9Mb3jDG/I8vPvd707nnXde7ZuxxaGHHppe//rX5+Xw3ve+N51//vm1b9oD7/vmm29ODz30UPrf/3pn5fatt96avvKVrwy220033TRNnz699m1nmDRpUp4oU+ldrrrqqvTZz352sG7tvPPOacaMGbVvuxtFWB/S7yLsgQceSD/4wQ/yxva6170uN+bTpk2rfTv2wAu4/fbbD3b8n/70p9OFF15Y+3b0oAEjOsjDJz7xiXTxxRfXvhlbHHPMMek973lPXg7LLLNMuuSSS2rfDA8Ey7XXXpvX99/+9re5HeslEYZ3dtVVV83L5bWvfW3aZpttOtJRPvvss+muu+5KRx55ZPrZz36W/vWvf43pQVw/cN1116UVV1wxr1uvfvWrc49rrwhrRVgfoggbWyjCuovDDz88veUtb8nL4QMf+EBb3gVi69xzzx30AL/vfe/LR/+9xG233TaY/xe+8IVp880374gn7J577knrr7/+oNd2u+22S88880ztW+lFCAH4whe+kL/P+eefP+266656woaIIqyNKMLGFoqw4dB+T9Lpp5+eVlhhhfSOd7wjrbLKKm0RS8ROEV8W75gpZzqeXmLy5Mnp97//fV4uH/nIRzrmraBeLrvssnk5knbYYQdFWI9zyy23pNVXXz2vWx/60IfSYYcd1jNxwu0WYfNq0RRhbUQRNrZQhHUXvI9HHnkkj9maMmVKWwKEEWG0aeo75fvBD36w50TY7Nmz82k/yuXhhx/OvWCdmE4laPuTn/xkXo6kHXfcURHW4zDFPHXq1Lxu0eEj7ntlql5PWB+iCBtbKML6HzqZcePGDU6hIcKID5Oh8+9//zstt9xyeTmSdtppp55ZSSf9hyKsD1GEjS0UYWMDxMIb3/jGvHyZzrv99ttr38hQQLx+5jOfycuRtMcee9S+ERl9FGF9SC+LMKYpTjvttHyfKeJH/vznP6dddtklXXbZZWnOnDn5Mbic50WEMR1C7MCxxx6bB+OytQX3IK277rpUknzvIvLQDK5FnjiPPY/Ke5Vxn0MOOST94x//yK/PfmY8B9sVPPHEE7Wj2sNwRBhlSqd00EEH5Xtbkdc//vGPabPNNsvzz3dR7s0YqghjywJWyHHPNdZYI22yySYtTbGxyo7yRpSU3yFTS3zHNiZDhfdCnvfcc888cDvKgn3Xjj766DywvBUos3jvnMsWCPMC0ymUEXn5zW9+k7frl770pYP1/rvf/e7gsx933HFN6xXTNdQ/6vnf//73/Dz2lqNeXnDBBS3XSwLbx48fn5+/5ZZb5nkEpmCpA7wT2i3HUJ5MyQLtiv39OI9j2NuuvE8YdY395jbYYIP8GrTVYqeA8CTehy1ZuA5tj3fOliyNVjjybAcccEB+DnF6Cy+8cF6O0V4oX76jPrayr9uNN96Yb0XC4gLqCOfSZlgZe+edd9aOGjqUB3aFeLl4R+y9R96jnOHRRx9N++yzT/rDH/6Qf18Vd0g+oh4S9xb5om2wncw666yT34P6fsUVVzS0oZTtpZdemp9H2XNfrkvC/pI/rjHUaV3s6A033JC/U9o/16M8KdehXJNnQkxz/l//+td8RbL7hA0NRVgb6UURhqHGgLHZ3kc/+tF89RTvivTKV74yffGLX8yFExuAYsx/8pOfDHZGzUQY3xEsjWHHAC+xxBLpJS95yeD1I7FsHvGAIGCFGxWnHjRwOpkFFlggP5eGT4wLxoCVOTSqt73tbXNd/zWvfnVu8DmWPbTatXpnXkQYxp5jMOCsWHv7298+V15J73znO/Pv6FyYwmFKrBFDEWF0przr4ntgu4B6U2w8I/nFOCM+CL59xSteMXhupFe96lW5l+inP/1p3kmxiWMzECcnnHBC3ul/7nOfGyzHSC9+8YvT+9///vTtb387b1fNAu2L+4SxinFe9wlDhCEoo441StRZPMRVII4QaXRuTMNRz4vnLrTQQrlniO8ph2bbNdAxxnTeYostls4666xcGCPi3/Wudw1el7bJirWTTjopF1e03Wb7hNEp77///oNi83e/+91grA9i4Tvf+U4efB3XIGEfsHls0skgqkpMUjZf//rX5zqvKnHtevvbkTf6DgaIK620Ulp88cWfdz71hAEi+1S1KtqBd821KUPK7E1vetNc11100UXz+sd2GpQFW2x87Wtfy7/j/SFYytBeoh4uvfTSudCm3fGe3/rWtw5eG+8qbYrVt2UQbiFeWWzC+47zionPv/zlL+cDBmLuyuK6DLYEUYfw+ta3vpXbmvI1eWauyQD2lFNOabiS1n3Chk+VCCOqrh2RdYqwLuf+++/P81tuiAsuuGB62cteNvg3S49/9atf5YZ2tdVWyz9rJsIQbIgitgqI60TC0HP9ouCLhFEhT3RgVSDCMIgYMDoBjMnll1+ejy5f9KIXDV6HDpxUvDaJwGD2KSp6z+aVoYqwxx57LDesxRVikSiTKoGKOCG/jbwlrYowPEN/+tOf8nLjWEQBnhE6lip4t+SXPbeKeSKRV95hVRmzXxDvA+NSD94vnpTY1ysSwofrVpUFnTlenHoj7XbtE0bHjMChs6dO0R4iD7QF8sb7IiHsH3zwwdqZzxHekKI4ivOr6j6b7CIyGolXvJWUAZsD064YjLBvWVyLd8H1+T/v9uCDD85FGHlptk8YQgevCCKB5+P9Ifpo4y9/+csH80l5VL0bBDjemvJ1EWEIc84r5o/EZ5Qh/yIuq9oOHRNeuS996UuDmyJHivdQ/IxrIca4VjOPDHlF/DLQLF6DxHWLIpxyYzB5xhln5GVJnWAAxaCxDCIn6iEimx3lEbVxLfIY5UAdIw9F8PbxXsuiPeoOqVwWJGwFoqmeBwt7xfexpUQxcc1yWZIYOOPpwnZV4T5hw0cR1iYosF4SYbjVWXofAcck9lj6/Oc/n4/uGQX96Ec/yj0fCC4MHt6Zj33sY/mxjUQYggHDE6M3DBbeKcTHD3/4w3wqg+vjkWGEzrJ/GnDkA+PGNF2VEQ0RxrQGnQMeNkaqjEpJ5Je/GZ3jul955ZVzg4jhi+tjdBFuw13FMxQRxmiSMimO4ilDAr3pNMgvAik8hniW4jjKp6qDC1oRYUxlUeaUUdwbAVFPKPFsXBePUuRjkUUWyev49773vTyvXI+ROkb4wx/+cH7NOJb/MyquEo8YaZ4nPCt0zogVOlrqBNfFa8B7RGwURcBXv/rVXIxUvbt2iTCECx0hAp/8IBCig6K9MBDh+fHgUUblDgpRy/t8zWteM5hvxM3yyy+fL+en/jMNx/MyAIrOnjaAKGZwVEWIMDrjN7/5zfm7oKNmQMK1KLNf/OIXef3m//ETWnjCWhVhtFnaOl4S3jPvEdFOPaXD4rlJvBu8T0VBFvW/+G7wtCPkERXkgXzH8ZQH1+I7Fj/wawRFqIN4NxF4cQ71lzrx/e9/Pz+Xcg4PbdRtEt4jPGv1vMg8L95OvP9xDm2O5+T98m55R5QltgvRQz2krmMDsSe8u2YijHNpk9gr6gDlil2iHnAd6npReDMl+/Of/3ywXCl72iDPQ12k7pCYkcADRR5iIEQeqQd4p8rtgzpNvrDvHEsdoj1Tt3/84x/n+eCZuS75LXqluQd1o6osFWHDx+nINtIrIowGedRRRw12sDTej3/847mxxGjS2DBS/MseQ0xH0mEWR7EY5yoRFl4EGnJcG9d2TLcgorh2XJ9R20033ZSPMkO0YeAwBlVegRBhuMw5ljzRiZE/Ok2mInDJx/URP+SHaYwQYkw58Ez1RE2rtCrCKG9G83QUHEdCNMXvPBbLhP9ff/31eZxVPCOJ98Motkp8NBNheGqYbompFsQBhryeAOMedPgY9OL98azE1g/Fd8jfeNl4Hjw6HM97p8wRM2WIsaHj5Bi8OHToMU1crHu8x2uuuSbvfELQ8C+xMVUGq5075lMG5IM80aZjsIIAwI7F8/Nui++E8kFQRJ2gziE26KwRa8XnQ6CeeuqpecccHSnvCA9h1fPxTr75zW/mx1F2/It4RezieeaaJKYRaTsxNdXKjvnkiY42BgnRrqiD6623Xi6QaKvx3HS0TPdy3RCo2ASmrYs2gbKhjMgX03LYSI4l0XaK77xYjvyfabriVBf2YcMNN8zjPstths+wIcU2Qx2rqn9AHSTvYdMYgDIooe0V7Qfv4cQTT8zbQojlKHvqWj0RFu2RY7kHf8cvBMR7ooMkxXuiPlAm4ammrjPIoQ1Q9lFOkTeOxzNH+8GTxTm8i6oNU6mXeGbDBtI+sPd4pMvXJbSDmMrw4pJ/yrIqxlIRNnwUYW2kV0QYjYnRVhgTxAGVAFFRBZWDOJ9iTEg9EcaxlEF0KksuuWQ6/vjjc0PZCIQCo9owQHhW6HTKcJ2iCCNhLMhflVcO6AQw6NEBkDfioPAODYdWRRhCFg9glDfluPfeezeMAaJTJQC+KDaZEq4Spo1EGB5POsbYSR5DSTnXE2CAESV/4Y2L/EZnUQ8MPXFs4bmiXjGFXYTOlQUgeFE4BnFH3GCxAy6DSMfzwfF0hHgqIti5SDtFWBE6pFgdyTMR0FwPAtW5N8eSiKWiU65X/+n46PiZsotOHm9Fla0sijASHmYCvDG0jZgXEUai7tGh15uK4p1RxohM6jaCGu9ZvQB7vM8R00ZiYUK99449wJsXdYn3ShtHYNYDQZF1OINxlghn8l8WBfzNcXiCOI53yyClaloZKBvircqxba2IMBLCmoFDlVe4SAjDOA/h06iuAbYNcRtTjLwHPFrErxUpXhuPIWXfKNaLd05bjnr/vve9N5199lnZ+5p7sZAibPgowtpIr4gwvFK43XknuL0xEI2MG9DBMlWC+OK8eiIMQ8aKIDoi7oEhrWfcyjBFFZ0A/zLKw8gUKYswxAnTp80EFfnEuxQij3dVJfKGQisijPzTwEIccCz5oDybQblhUEMM4YXBo1amLMJCfHAPBFgEA2N8mwkwwABjTJkCwVuKscLT0Ap460Jg8axMJ9GJBYy0WakXcUyICkRWM5jKRZjzfAgPPJ7lDnwkRBjCszhtT52uV28obxZcxLORX7worYC3NsQbHhC8W+VOsizCmKbGk9aMuUXY61oWYYjdZisWuQ52gA6Yc3hmFpNUweCgGA9Zb7NW3ittn/rOcdga2kw9MViEGDSm+8IzxHOX6y7lgfcovGAMkGLqth60Y+wmzxf5b1WEEYeKiGsE18fjheeLYH6enYUSjQYnAR0tdjbuRxgJHvYirPzEPvE9IrUch1YFAwrqGwNpyogBFe23iCJs+CjC2kgviDAaCB0z4otREwYCo9EKGMaIoagnwrg+MTF0GIx8MeLFTrgRGIYwvHQG/F0+N0RYCAs6eoxVMy8N18Hox8gOI1mvs2iVVkQYHQfiNYQUcSDNDHIRPHgYZc5FQNLJl0fUZREWy94RLiFW8YAgwPDKNYOyRNRiYCkjVnbVC/Ytg/CJXdERIwiuohcII860Zoh5OrIIIG8EnSv1iW0U8ORWGaxOizA60fiNRjp4xEC9+K4yGMsI3uZcPGPld1UWYUz3NvOUwFA8YbFIh/qKt6ied7wIqyfDq0QMVNVqP2hVhFG/GRjGFDTeUhZktAKihVCLaOe8LzzxAc/JQCGm2sgv9qQV8C4hdmJKr1URhnew3uKXgHzjGWdwQftFNNVbnFSGtsBUbPF+xW01gL43FiCwupkpZrzkjSA/eGnJy6233pbnpywKFWHDRxHWRnpBhDGdRfAu74NpuXpTXFUUV1nVE2FDhUZNZ8MUFVOkdBJcvyzCoumHCAujzygNL0IzuA8xEGF8MaCtis96tCLCMKp0lkw1IUpo+K16BoFOnMBZDD+imSmK8vsqijBWSFEeTB/GZ8SJ8J7Lo+N2QhwJHSXB0tEBMl1WFmG8BzrjmBqmXBD2LLEn3xiNeaXTIgyvVwwieF/Ut6HAOwvhwaq6cv0sizBi5Zp5NWEoIiym8mgnrXrxqH+0Q85D9NfbaqJVEcYzERMaIQ1MRbfiOQ5oc+H1oW3SRuM+PDee+vDcEeuF6GkF6sJ+++031xRpMxGGR46Vps1mGuYFPKXEvFFvInYOAV8lwhCBLAbgGBLvmRkE3t1w7IIibPgowtpIL4gw9oOK0TrTUwSzN4pNKoJXh4BuGjqdxVBEGOdiGDDEiCuEFLE2jOBwn7MCqrhEekCEnVhXhMUqK0RHq0aUTppOlPNGS4SxUilWlFJm1I+hGCkaJu8oxCn3YHRapCjC8GTEyjX+JtER8N6GIv6q4F3ToTMyZg8qpo/pSPHOEWOHB6y4hxhCpCzCAI8CU4oxZURCsOHFQyxSRkxj8n5a9QZAJ0UYHj466PDQUg4IS7wuTBnyb7PElFtsZkoMH89T9BCWRRjXb6V8hiLC8AxxHOVHrFErkHe8VZxH8PxwRRjevdiKg8S+XGzT0ko5cgyxY7QTzqVe4WEMrw//FsMSWJncyiaxwACCKbpYfIJQbSbCiAfDzrXqSS7DPfECI3a4N5sXE+fGIhjaNAO8Yqwug5oqEYbNweMcnvFIPAMilwUPiDkGUs28dkUUYcNHEdZGekGEMb0Uy5QRBazkKhvkenAcHRIjQRoc4qCRCEPcYZDonOh0MQ6UUQSJV6WI0yiLsKAowsJA11sBVYZpCuJouP5oiDAMKCvIwmjjvWOKp9nUWxGMN51VlBlCpywuiiKsXkKc0TmVBVEzGG0jJNnFn+BlYkMQvnS2EUheTvEO64kwyoXBAB6+mKYtJwYIjO5ZscZ0M+VKZ9SIToow2gZtKUQoAwrKiHdPorNrlMg3Ai68P+FFLMbgFEUYdZ+wglY8LPMiwrARTP22AoI8whTaIcJ4bzEFz3PiWaWMWilHjqGuU384l2swKIm6gxcZj1CUM6K/HMTeCPowFiJwLvdpJsJo88T3DaXNA0KIBSsszmFam/dO3Ytp/HKKZ60nwoBBGNO84e0sJ9ot90CcIPSYnaDulG1wEUXY8FGEtZFeEGEYCAKueR+IMDqYRqtkitAY2SAS0RFetCoRhsHBxc21Y3qmnOig6RAYmeG1oWOn/MLINIsJCxHGvlGtxMXAaIsw8k4gfRg9RqwIIURIq3APDHFMvyIuyrFsVSKM94Ngo1MKscRWIa16DYG4MIwx76V47UgIBQwv4oH7M4VGiunIeiIsoKPAK0GwMx4grle+RyQ6PBYp0MHXM1adFGHkiWmnYp6Hm+jQGokwVq+1Eqw+LyIModGqvW6nCKNtMC1d3E9suAmRECKMsqDjjYEC0+etzgQAcYnUcc5tRYQxeKL9NhIyRWjvlBMCIexKOeFBpj5iTxCr2POwszxXPREGTOsSK8oAh3dd9EaXE/0D4Q/Ui3pedEXY8FGEtZFe9YS1KsIQVzQyDEAjEYYoIqajODWF9wyBheHCwNMAuDdCi9VLGEI2aI29y/pFhBFXE9MFiDFc/kMVYXRWRRHWzBOGMWQDTNobIio6VrxOeJZamcLCMNBBUUfiunh3eIcIZzoippEZWTNFwhQpdYEpofBihDenkfcNkUOHQbnQefBeKE/qS4zuIyEm6Ww4tspgdVqEMT0YecbTQlkhLltN1Gk6bRJ1hfc6FkUY025ch2MQFdTbqvKqlyjHYlkSOxexhgwO2TYkBiZ4mVopw4BBTMRftVuEURbYC/qRqEfx/AxssI0IHqYhGQyzAAJxREwtn3E8qZEIA/KCKMW+xmpMrs99qgZCTKmyuKgqdlgRNnwUYW2k3z1hHMcPB9MZ0+CqRBgxF8QX4AXhHhgRgl8xGrx/3Oy4/zF8dARF40Rnzm7xnNcPIgwQAiEsyTNTE60Y5IAyok7FRqvNPGEYUqZbwgjjzWLBQ8Tb4XWks20kBHmndBwhwHiHdJ7EtnBvFmhg/BlVUyeKQoHp14iBa0WEBXRA1B1WPtIJE/PCNBKiILZ8iET8IJ1V+bqdFGEhlil/jiO+jVV5GNhWE50cCzFY5EAaaJfPvaexIMIAb1McRx1kGhzxVFVmVYk6T/lFWVJPo83xHQHpsSM9U+JDiYEaSU8Yq2sRNLQ3zsVe0Jb5/VFCLqgf7B9I+6S+RRtmShqPMueQmomwgDxxLtfluRjcIEzYCw8PWQhBEuKWdlCe/laEDR/qrCKsTfSCCGNPJn7Kh/eBp4oRDg27FWiAjPYxEhjHqsB8REgYKTpP7oVRKhv9MhgUVpMxfca5/SLCyFtspEgwMMJ1KI0NYcIoNzp3BDSrv4oURRgigViOIgQrhzDCA4DhKf9ETBG8WtHZk8g/12y22STgCYtfBhiKCCtDvaJzRHjgIWVX+ViVFgsNyrE8nRRhPCPPSr3kOLwLZbE8XMaKCKPNxI9k867baVOxddi88NJTr8oLXeqBjWKqNGwUMWjtEmHYBDZQjXxR37CvdNDN4skQm8V9wloVYWUQT1wL24DNwEsW9ZnEFhcIxSKKsOGjCGsjvSDCMELsF8X7oEPG29Bqg2UVEauJOBdjXhZheET4sddYgYMhYQVdK3Auxioafb+IMIQEo20EKeKVzrCVvboC9ujiGXlXeBcZGcfUSlAUYdTBctwXjZsOO4QE+a0X1E15I2Yijo33zDNWdZZl6CwI4I+OvGqfMKZC6aQZdfMzKnRqzYw2nR+CKjpmxB3lWF7V1kkRRh6LW1QwXU/sTasdEvdhM0ziyvA48ix3Tb5r0NsBY0WE4a1inzSmdHlO4pKGso0C3lTeGSuvqX88Rzwv3kXqc3h5yQ+e11Ygr8R08m45l7rWLhGGTaBtR9kQv1lVz6qgbLAxcW5ZhPHMiCfeLyEgLHRpZTEC4mDttdfO6wzX5d2yV2SxTirCho8irI30gghD7NBQIniaeCWmAVtZvYM3JH5Ml3iXsgijsdMx0Bg5BjFWFiX1YNoAQxKrlvpFhNGwKKdYcMB+SvxwcCtg7MhzxJTxzuig6bCLFEUY02B0dmWYziAWJqY6EAt0nsWpRODaiIeIDWHUX9zsshEILGLOYuqzKjCfqUy8WNQNRv1VHq0q6ADpELguz8DSfARqkU6KMGDFZ3RIJOIiq35eqQqEB50w5U59oiO9+pq5f6h8rIgw7AhhD9H5E6LAlFwrUJ/xnBJDyZQjHklWZ8d9sHOI3RDLTLNR35uJJKCe4h2K6fF2ijDaJ4KAc0gIBOpEK/A84emmXpRFGDYIm0+eKFM8260KPOwPHj+ujV3HdinC2osirI30gggD9nkq/tYYlbFZZ0FcBR1mCKwqEUbj4/nDeCKUWtnwETGDKz6Cz0n9IsKA0WNM0TElWfWzIlUgMvAChKhBYJV/ixFaEWHRyYZBRchgrMtTm5QvhjTuifCjEysa3iqi84v4N1KVCGN6le1K4hjaTCv7UeHBpZ5yDkKFrTLKHsWREmHU6XjHvEc6nirwLOJhjBVnCBp2ky+L5irozCPvJDZULnfCvS7C+KUI3gvHkWjzxboRIJTYryoWeDANjWesFUHLs9JmYhBBe2eKvAgDPupSiCkEfb13GlD/GawW63c7RRhTgAyS4trMUPAszcDrR4xbTNXjMS+LsHi3UYexnbTx8gCsiqwDHzwP28FiAEVYe1GEtZFeEWEYbgx4NFwMJ8GvNOgqeJGMWqMDJ1WJMIwnHXYYcq7/m9/8puFmiMQgMIUZRisSIgwB1w8iLKaAIxgYY4VXp5EQY2TMOTH1gShiqqo8FQmtiDBgRRRCOkQC73C77bZ73jukU40FEiQ2c2zUSeEBw8jHaDwSIoz6UOxouT7xJiE4KBOMYaPrIxiIF8QLxTl40Kh7ZQEyEiKMjoq6T2fKdak/jbwI3JN6wLEk3gdT8vV2fEegITiox3EOdZ8Ovyzeel2EEfwdK7NJtJ16INaLXlXaGG2m0W+YYr+Ygoz2iFedbU3K+8tRH2kzUVeYmmQ1cb3fMKWdU2cpk8g7qZ0iDGEYP1tFwgONgB9YnPF8aEfklxXMEUdGQoTRXsuDK0RZ1AESWwJhX3m2ehDTSMxcnLPKKqs877p9K8LQmY3HnW1DEdZGekWEATECxaXaNCCWchMfgdEmlgmRQIeO5wK3PcdFqhJhQMMNLxsJA0fQKCOouC4jWowCho0l4hyDZwbjGQYlpkn7QYQBcVr8UkFMB9IZsmqRDgzDhleHRLmwOzgj4RBtnIMxrLfHV6siDBAJxffDTuflH0pnVF402CwKwBPBcfEOySv55r1SP6Lzpl6EcMTTgMAuTzmxGos6EWIQsc7onSknOlmuzT0Q72wUSydW/OFk2hmrMMt1YyREGBDnFtfFW4uIiXeGwC6KTNoD+S22F0QVbQUPdLENEBCOp5AOMY6l/FhdzHXL9LoI490W6xXxpbQXxBMipNwJ8f5YWR1tBkFWrCeUIWWJxxgPMfYrvPCkr3zlK3XrAMIMARMij7qIB41rcz3eLddHZLCyO56P4yI/CCXKrMy8iDCECwIm2g6JQQcDAPIQz0pZYbsPPvjg/FcF8PiRJ6bLaW/Yc4RFWVBStrTFmFYnMTXMVCzXi+vzL+die7E5ER7Ce6UcyqKwb0XYKKIIayPDEWGjJLoHwSgguFhtF657EoKCjpwgaJ4nBAaJjoWNOekA6okwVtAhTCLmjITR4niuixBBBGCk4r4YDz7HK4PhjHvhCi97A3pVhOHCZ1qEDrdY3hg54sQIxOXZKZfY3oPE/1mVRCdTb0pwKCKMho5hD2NPGSKwil45jCjem/LO2nRweLsw/nSOlGUIKZ4JLwfxU3RmcW2C78tCgefAK4KRLz4r1+I5KAfq33LLLZfXmxgokJgO4v2XRQSMlAij7CnXyANTylyffCKE6LCL0MEzLRneM1K0GUQvz0YbYKBRfH46MeLCyrFuQa+LsBDfUf95r7xv6g0DEhZpFCFP9doM75kyxG4g0GP1cFyX98VGyUWBXIbnYyoypiVJDAiYBuXdcn1iF0N04R2mHGMGgbrIgKnMvIgwYABGqEIIQxJ5Iw/YaeoNNgbbGHli6xoGstQ3tsygXmC3q1bmUv5rrbXWXEKVciWPvAPaddTLEF9xD7zwCOUyirDhowhrI73kCQOmWuioGF1GZ1ov0XkQw8HoEcNAR8QUZlmEAY2VzjcMeqMUnjKm3wh8ZTTL5+SHqbPy9BtGFe9BjOgQA60uMcdgxm8q4p0Y7hYCiDAC5TE+XJP33yi+ibwTF7PaaqvNNYVQL2H8mCbh52MaxW8wJRJTxXSG3KMReBHwQmCw4z682+Iol+kgPmO0H8fVSwg6fjuSfPIO2YYjvmOxRdV0NM+DWGTqJH7Hr1li5I4HoJ6xYvTOe+VY6msjMToUeCa8ffGei4mOq2p6kvKjniIQmpUfibbCoAZPRD2xjVcwVoiSqqZkq0DUMZXEOYgVhHKVCOP3OiMuk21mWv11Baa1wlNJh453tArqP3GesbinmBBvTL+V6znn0E5pM0VxUi/hPcaLzACzWSwez0yfhACM1ZL1EqKO8qH+Iab5jPpYtbKS/EZ7ZDDKD4a3IsLwRtOGaJut2AcGb3inmOrGjke8He+AvFbZDDxp66233uC+g80SAzE2ZK63SIDFKLQBjiXPeNsUYUNDEdZGek2EBRh+Gi3BwIiU6DQwTIxCGXFjkHmhiCu+Y6TEnmH1fvIDw8BqSuI4MA5FA4qRoOGyAorRb3F1HKImDBBGjimcYqeEUWZ7gzCajOAYjbVCUaxg9IfrKUGEseQ7RsZ0/EyTNYJnodExSkdk8oxxPolRKqNRfhQbD0w5nqUK3l0IXgLH63njAjoEOs7wCpLwOpU7TwQ2nxFng2ekKJYQwXzG1BnvuThKpqOK0Tb3YNq5SljQ6UTdI3aQ9lPsDKkznI93gBE2Hs9GBh6RzXvlXDr6ZmK0VeKd0ZnyU1DFAQvio+zBCcgrnRR5R4zStopeF7y5iCreNdeoFzcW0EEz6IjzGQQ1OwcQYXh8OIcyxUZViTDeW3TOvAu8la3A6tmoS4iORls+0NFQXxj48fzxLJQp5VAvBgoRgIDDI8OO9SGESHgTaXsM4PCSIvqL0+vN4NrYBgLcaT/hdSNP1HHKi/dI3njWqKPko2rQhV2J9kg7wMPfiggD8k3+2UaCOlOMw8X7hTcOzzViB1Ee5YW4okzjWAa2xNtWQQwn74B2jccPT1ucRyLveBh5bmxJozrGVCZefM6jTxjKtiydRhHWh/SqCAvoEDEqCASMEp0nDb24nxQeKyoMXgc6RURRI9hZHWOOAWW6gylBOhzOrRJw5AGBQMfMVERZhGCkMDgYQ66H6Kna76oKKjvPxHkstW7l53sagWFlCoHy4poEWJc9d43g2RC3TOdwfpQ5hq2VzjXguXgeroFwq4onKsO0MQaWc4h54v2Up9UCyol6EPnk/RMfRj7x+JTB+PPuOJZ3SaxJI0LkUBbxfuJchBRTpY08gQGd6VDLYSggSot1mcSPLNfr7ALyTsdK24p6S6IM8eK2+q7xenGNOJ+22MrKS941woBzmLLFE1oWBbwD3hNlznEIqap3WwUCnGfhPMqmOKiqgnsRU8c51CXOw54wmGpmT2hfiFHqSZxLmTJYow61KnbKxPPjPSUujOtS3/FyhrefYxB5MRip91ustJeoh+SNZ+XcoRB1hqldyoZrkS/yh/0rlxPChzbKcbRnvHHNNlcmn5Q5dgu7zLnci3ePfa6a5SiD7Q07wrm01Xl9B6ONIqwP6XURJiLSzyCGGOjhaWLjVUR+q2ITUcPUXCyYYSqdeDvpTRRhfYgiTESke0GE4U0iRIIYP6b+8f61At4hFkYwLci0MuEYQ/FYS3ehCOtDFGEiIt0N03mxMSrxrwT9M7XbCDxe/Eh2xIOx+pGpxqHEnkl3oQjrQxRhIiLdDcHsLKiJbXRY3UuwO8HqiC1iC9nOgc6RRQ3En9Fhx2IAAtDZBJbvpXdRhPUhirA2M7RYVhGRlmC1I3t+FVerEnDPtg+sGGTakZWo7JkVMWAkVpeyCpEg+KEG20t3oQjrQxRhIiLdDyv4WPnItjzFXeobJbbUYFsZdpR3GrL3UYT1IYowEZHegWlHtn7gdyrZc5A9DOmrIvE3v8rBHmZsqdFs+w3pHRRhfYgiTETGLr07PYe4YooRocU+WwcddFC+9xX7wLGXlqsg+w9FWB+iCBORsYsxUsPC4htVFGF9iCJMRETmCUXYqKII60MUYdI2NMgiIiOGIqwPUYSJiIh0P4qwPkQRJiIi0v0owvoQRZiIiEj3owjrQxRhIiIi3Y8irA9RhImIiHQ/irA+RBEmIiLS/SjC+hBFmIiISPejCGsAWyT14jZJijCRPsA92kT6HkVYH6II62N6dWQgIiLPQxHWhyjCREREuh9FWB+iCBMREel+FGF9iCJMREQ6g/ESQ0ER1ocowkRERLofRVgfoggTERHpfhRhfYgiTEREpPtRhPUhijAREZHuRxHWhyjCREREuh9FWB+iCOtGXDEkIiJzowjrQxRhIiIi3Y8irA9RhImIiHQ/Y0KEPaQIExERkS5DT1gfMvoizHin0cdf8h7b+O5F+gFFWB+iCBsLKMLGNr57kX5AEdaHOB0pIiLS/SjC+hBFmIiISPejCOtDFGEiIiLdjyKsD1GEiYiIdD+KsD6k8yLMoHHpVay7IjJ6KML6EEWYyLxi3RWR0UMR1oc4HSkiItL9KML6EEWYiIhI96MI60MUYSIiIt2PIqwPUYSJyKhjOJ3IkFGE9SGKMBERke5HEdaHKMJERES6n86IsOe7rIcuwlp3eyvCREREpOvQE9aHKMJERES6H0VYH6IIE5GOY5C+SFMUYX3IMsssk3bcccfaXyIiItKN/O53v0srr7xy7a/OoQhrI0svvXT66U9/mi644AKTyWQyjXA6v5aqvjOZGqUvfOELacUVV6z13p1DEdZGvv/976fFFlssLb744iaTqYPpXRWfmUwmU6RFF100rb322rXeu3MowtoIDzxhwoR0yy23mEwmk8lk6tI0ceLENGXKlFrv3TkUYSIiIiIdQBHWYVzIJDJ8aEe2JRHpNZqJsBmzU3rg6ey4Gc9P9z6V0iMzU3p6Tu3gEoqwFrDjEBk+ijCRMraKXqCeCHs6E18Ts4/OfzilE+5P6dh7507HZOm4+1I69YGUrpiSCbVMkM0qiTFFmIiISEdQhPUCVSLsmUyAXf94SoffndL4iSntNiGl3bN/y2k3/s2++9edKZ2cCbVJ2SVmF165IkxERESkDmURhoi6/YmUDrsnpV0zkbXXpOYJoUY67YGUHnnmOemtCBNpI45rRUT6ixBh02sibOqslM56aEBU7VkhuKoSx+2RpQMmD3jQZtU6CkWYiIiISB0GRdj0ARF231MDsV5MQVYJrnopF2KZcLvw4ZSeeDa/lCKsl9HjItICNhQRGSLFWY2yCJs0PaWj7h2I+aoSW/VSiLAzH0ppysz8UoowERERkXoowkREREQ6gCJMREREpAMowkREREQ6gCJMRERGjmIUsojMhSJMREREpAMowkR6El0LDbF4RKQHUISJiIiIdABFmIiIiEgHGK4IQ3zFv90jwgwEFRERkS6nPz1hijARERHpcpyOFBEREekAijARERGRDqAIExEREekAijAREckxlFZkdFGEiYiIiHQARZiIiIhIB1CEiYiIiHSAnhFhxiqIyFhHOyjSXyjCRER6BO2gSH/hdKSIiIhIB1CEiYiIiHQARZhIJ3F+SURkzKIIk95AsSIiIn2GIszeXUSkR8F+a8Old1GEiYiIiHQARZiIiIhIB1CEiYiIiHQARZiIiIhIB1CEiYiIiHQARZiIiAwdFyWKDBtFmIiIiEgHUISJiIiIdABFmIiIiEgHUISJyNwY6yMiMioowkRkbhRhIiKjgiJs2NhjiUgXoUkS6RkUYSIiIiIdQBHWRzAAdhAsIiLSGyjCpEMoF8csvnoRkRxFmIiItAX1tcjQUIRJx9Fwi/QHtmWRoaEIk46j4ZauwcooIqOIIkxEJFCEicgooghrEW2zdBZqoLUwsCREpB9QhImIiIh0AEWYjB10JomISBehCBMRERHpAIowERERkQ6gCBMRERHpAEMSYQ2EmSJMREREZAgowkREREQ6gNORIiIiIh1AESYiIiLSARRhIiIiIh2gB0SYu2uKiIhI/6EnTERERKQDKMJEREREOkBZhE3ORNjRiLAJ1WKrXkKEjc9E2FmZCHtsVn4pRZiIiIhIPcoi7L9Pp3Tc/SntfEe12KqXwhN26aMpPTU7v5QiTERERKQegyLsyQER9kwmoC7JhNQemajCs1UluMppz+w4pi8PvXvAkxah9Iow6R2otK4BERGRUSRE2JM1EQYPPzMQ24V3C3GFGMPLVU58HumAySldMeU5LxgowkREpK04VpJ+okqEwX9nDgixfe9MaZ8s8W8x8Vl8fsQ9KV2ZCbDHn62dXEMRJiIiIlKHeiKMwcbjs1K6/YkBDxdTlOV0afb5NVMHpiCZxiyjCOt6HFOKiIh0inoiLJiTddNPZwJrRkVi6nHmnIFjqlCEiYhIR3CIKb1AMxE2HBRhXQdmSdMkIv2Plk56AUXYmEIRJiIi0i0owrqRvtZKCkERERFQhImIiIh0AEWYiIiISAdQhImISMcwQEHGMoowERERkQ6gCBMRERHpAIowERGR4eKcqswDrYuwoVcwRZiIiIwNFGEyDyDCjjzyyDRr1qzaJ+3jscceU4SJiIiIVHHvvfemQw45JN1yyy1p8uTJDdJdFZ81TjfddFMaP368IkxERESkzAMPPJD23XffXIgxLdnOdNxxx6U999xTESYiPYJTSiIyitxzzz3p8MMPz+O3ZsyY0dbEtZ2OFBEREakgYsKefvrp2ift49FHH1WEtY5DcBEZ44wFM6iplwJuUSEiI4cdjohIXapE2CPPpDRpekr3P5XSfS2me7PEOdNn1y6SoQgTGesowkRE6lIlwqbMTOnfj6Z05D0pHX9/Ld1XnU7Ivjs2+5d087SUZijCRERERJpTbzry9idS2nNSSrtNSGn3iY3Trtkxh92d0rTSVmOKMJHhoidJ2gIVqdcqk5Vf+p96IuyJZ1O64OEBEbZHJsb2qpP4ft87U7ppWkqzSk1GESYiIsOjF/WjSIs0Csy/c/qA0Npj4vPFV6Tdsu+YtnyqMA0ZKMJERERE6tBIhDG9eM5DA9OSVUKMqcj9J6d03eMpzakYqCjCREREROrQSIQhrO6ZkdLemeAaXyHCdpmQ0jH3VnvBQBEmIiIiUodGIgymP5vS6Q8OCLGiNwxRhhfsqim1AytQhImIiFRisJs0F2GzsyrCHmD73TkQhB8ibKc7Ujrx/pSezERaPRRh0jVo6kSku1CESXMRBjPnpHTyAyntOXFgpSQxYvtk6arHagfUQREmXYOmTkREuo1WRBjesMkzUjroroE9wXbO0qmZKHtsZu2AOijCREREROrQiggDgvRPuX9gRSTxYNdOrX3RAEWYiIjISOGMZs/TqgiDO54Y8IbxU0X8vmQzFGEiIiIidRiKCGNakmD8/0xpTXsrwkREpDF6c9pEq4XY44XdZ3VlKCIMrpua0j1P1f5ogiJMREREpA5DFWFszMpqyVZQhImIiIjUYagibCg8T4RNmDCh9pWIiIjI2GbatGnpqKOOSrNmzap90j6mTp06twgbN25cOvbYY02mUUrHVXxmMpl6N9mmTf2VDjvssHT00Uene+65J/dctTNNmjQJEXZbTYO9ADVmMplMJpPJZMrSIoss8p+dd975P3vvvfd/8Fq1M+23337/2WWXXQ7I7iMiIiIio88LXvD/bBF1a+uekHYAAAAASUVORK5CYII=;" vertex="1" parent="1">
          <mxGeometry x="111" y="80" width="609" height="472" as="geometry" />
        </mxCell>
        <mxCell id="QE1ceX6tZlG83q3leU7i-9" value="" style="group" parent="1" vertex="1" connectable="0">
          <mxGeometry x="111" y="80" width="682" height="70" as="geometry" />
        </mxCell>
        <mxCell id="QE1ceX6tZlG83q3leU7i-17" value="" style="group" parent="QE1ceX6tZlG83q3leU7i-9" vertex="1" connectable="0">
          <mxGeometry width="682.0000000000001" height="70" as="geometry" />
        </mxCell>
        <mxCell id="QE1ceX6tZlG83q3leU7i-4" value="" style="rounded=0;whiteSpace=wrap;html=1;" parent="QE1ceX6tZlG83q3leU7i-17" vertex="1">
          <mxGeometry width="612.6440677966101" height="70" as="geometry" />
        </mxCell>
        <mxCell id="QE1ceX6tZlG83q3leU7i-5" value="E - Church" style="text;html=1;strokeColor=none;fillColor=none;align=center;verticalAlign=middle;whiteSpace=wrap;rounded=0;fontSize=17;fontStyle=1" parent="QE1ceX6tZlG83q3leU7i-17" vertex="1">
          <mxGeometry x="34.67796610169491" width="104.03389830508476" height="70" as="geometry" />
        </mxCell>
        <mxCell id="O4CA-UXKTGQqIf8RaLZ9-1" value="" style="shape=actor;whiteSpace=wrap;html=1;" vertex="1" parent="QE1ceX6tZlG83q3leU7i-17">
          <mxGeometry x="531.9998305084746" y="8.75" width="31.52542372881356" height="52.5" as="geometry" />
        </mxCell>
      </root>
    </mxGraphModel>
  </diagram>
  <diagram id="nYueMEr54GXKxaM9sbus" name="Page-2">
    <mxGraphModel dx="1210" dy="579" grid="1" gridSize="10" guides="1" tooltips="1" connect="1" arrows="1" fold="1" page="1" pageScale="1" pageWidth="827" pageHeight="1169" math="0" shadow="0">
      <root>
        <mxCell id="0" />
        <mxCell id="1" parent="0" />
        <mxCell id="xJkJOXk_-eDxV_ymqDWZ-1" value="" style="rounded=0;whiteSpace=wrap;html=1;" vertex="1" parent="1">
          <mxGeometry x="160" y="400" width="530" height="410" as="geometry" />
        </mxCell>
        <mxCell id="xJkJOXk_-eDxV_ymqDWZ-2" value="" style="group" vertex="1" connectable="0" parent="1">
          <mxGeometry x="160" y="400" width="530" height="60" as="geometry" />
        </mxCell>
        <mxCell id="xJkJOXk_-eDxV_ymqDWZ-3" value="" style="group" vertex="1" connectable="0" parent="xJkJOXk_-eDxV_ymqDWZ-2">
          <mxGeometry width="530" height="60" as="geometry" />
        </mxCell>
        <mxCell id="xJkJOXk_-eDxV_ymqDWZ-4" value="" style="rounded=0;whiteSpace=wrap;html=1;" vertex="1" parent="xJkJOXk_-eDxV_ymqDWZ-3">
          <mxGeometry width="530" height="60" as="geometry" />
        </mxCell>
        <mxCell id="xJkJOXk_-eDxV_ymqDWZ-5" value="E - Church" style="text;html=1;strokeColor=none;fillColor=none;align=center;verticalAlign=middle;whiteSpace=wrap;rounded=0;fontSize=17;fontStyle=1" vertex="1" parent="xJkJOXk_-eDxV_ymqDWZ-3">
          <mxGeometry x="30" width="90" height="60" as="geometry" />
        </mxCell>
        <mxCell id="xJkJOXk_-eDxV_ymqDWZ-6" value="pilihan menu" style="text;html=1;strokeColor=none;fillColor=none;align=center;verticalAlign=middle;whiteSpace=wrap;rounded=0;fontSize=17;fontStyle=2" vertex="1" parent="xJkJOXk_-eDxV_ymqDWZ-3">
          <mxGeometry x="290" y="15" width="150" height="30" as="geometry" />
        </mxCell>
        <mxCell id="n9_Tt-e1FEJ40fWf2l1z-1" value="Masuk" style="strokeWidth=1;shadow=0;dashed=0;align=center;html=1;shape=mxgraph.mockup.buttons.button;strokeColor=#666666;fontColor=#ffffff;mainText=;buttonStyle=round;fontSize=17;fontStyle=1;fillColor=#008cff;whiteSpace=wrap;sketch=0;" vertex="1" parent="xJkJOXk_-eDxV_ymqDWZ-3">
          <mxGeometry x="420" y="17.5" width="90" height="25" as="geometry" />
        </mxCell>
        <mxCell id="xJkJOXk_-eDxV_ymqDWZ-7" value="" style="verticalLabelPosition=bottom;shadow=0;dashed=0;align=center;html=1;verticalAlign=top;strokeWidth=1;shape=mxgraph.mockup.navigation.scrollBar;strokeColor=#999999;barPos=57.868;fillColor2=#99ddff;strokeColor2=none;direction=north;sketch=0;fontSize=37;" vertex="1" parent="1">
          <mxGeometry x="670" y="460" width="20" height="350" as="geometry" />
        </mxCell>
        <mxCell id="xJkJOXk_-eDxV_ymqDWZ-8" value="" style="shape=sumEllipse;perimeter=ellipsePerimeter;whiteSpace=wrap;html=1;backgroundOutline=1;sketch=0;fontSize=37;" vertex="1" parent="1">
          <mxGeometry x="210" y="550" width="40" height="40" as="geometry" />
        </mxCell>
        <mxCell id="xJkJOXk_-eDxV_ymqDWZ-9" value="" style="shape=sumEllipse;perimeter=ellipsePerimeter;whiteSpace=wrap;html=1;backgroundOutline=1;sketch=0;fontSize=37;" vertex="1" parent="1">
          <mxGeometry x="340" y="550" width="40" height="40" as="geometry" />
        </mxCell>
        <mxCell id="xJkJOXk_-eDxV_ymqDWZ-10" value="" style="shape=sumEllipse;perimeter=ellipsePerimeter;whiteSpace=wrap;html=1;backgroundOutline=1;sketch=0;fontSize=37;" vertex="1" parent="1">
          <mxGeometry x="460" y="550" width="40" height="40" as="geometry" />
        </mxCell>
        <mxCell id="xJkJOXk_-eDxV_ymqDWZ-11" value="" style="shape=sumEllipse;perimeter=ellipsePerimeter;whiteSpace=wrap;html=1;backgroundOutline=1;sketch=0;fontSize=37;" vertex="1" parent="1">
          <mxGeometry x="580" y="550" width="40" height="40" as="geometry" />
        </mxCell>
        <mxCell id="xJkJOXk_-eDxV_ymqDWZ-12" value="" style="shape=sumEllipse;perimeter=ellipsePerimeter;whiteSpace=wrap;html=1;backgroundOutline=1;sketch=0;fontSize=37;" vertex="1" parent="1">
          <mxGeometry x="285" y="650" width="40" height="40" as="geometry" />
        </mxCell>
        <mxCell id="xJkJOXk_-eDxV_ymqDWZ-13" value="" style="shape=sumEllipse;perimeter=ellipsePerimeter;whiteSpace=wrap;html=1;backgroundOutline=1;sketch=0;fontSize=37;" vertex="1" parent="1">
          <mxGeometry x="405" y="650" width="40" height="40" as="geometry" />
        </mxCell>
        <mxCell id="xJkJOXk_-eDxV_ymqDWZ-14" value="" style="shape=sumEllipse;perimeter=ellipsePerimeter;whiteSpace=wrap;html=1;backgroundOutline=1;sketch=0;fontSize=37;" vertex="1" parent="1">
          <mxGeometry x="525" y="650" width="40" height="40" as="geometry" />
        </mxCell>
        <mxCell id="xJkJOXk_-eDxV_ymqDWZ-15" value="Kegiatan 5" style="text;html=1;strokeColor=none;fillColor=none;align=center;verticalAlign=middle;whiteSpace=wrap;rounded=0;sketch=0;fontSize=17;" vertex="1" parent="1">
          <mxGeometry x="260" y="700" width="90" height="30" as="geometry" />
        </mxCell>
        <mxCell id="xJkJOXk_-eDxV_ymqDWZ-16" value="Kegiatan 6" style="text;html=1;strokeColor=none;fillColor=none;align=center;verticalAlign=middle;whiteSpace=wrap;rounded=0;sketch=0;fontSize=17;" vertex="1" parent="1">
          <mxGeometry x="380" y="700" width="90" height="30" as="geometry" />
        </mxCell>
        <mxCell id="xJkJOXk_-eDxV_ymqDWZ-17" value="Kegiatan 7" style="text;html=1;strokeColor=none;fillColor=none;align=center;verticalAlign=middle;whiteSpace=wrap;rounded=0;sketch=0;fontSize=17;" vertex="1" parent="1">
          <mxGeometry x="500" y="700" width="90" height="30" as="geometry" />
        </mxCell>
        <mxCell id="xJkJOXk_-eDxV_ymqDWZ-18" value="Kegiatan 1" style="text;html=1;strokeColor=none;fillColor=none;align=center;verticalAlign=middle;whiteSpace=wrap;rounded=0;sketch=0;fontSize=17;" vertex="1" parent="1">
          <mxGeometry x="185" y="600" width="90" height="30" as="geometry" />
        </mxCell>
        <mxCell id="xJkJOXk_-eDxV_ymqDWZ-19" value="Kegiatan 2" style="text;html=1;strokeColor=none;fillColor=none;align=center;verticalAlign=middle;whiteSpace=wrap;rounded=0;sketch=0;fontSize=17;" vertex="1" parent="1">
          <mxGeometry x="315" y="600" width="90" height="30" as="geometry" />
        </mxCell>
        <mxCell id="xJkJOXk_-eDxV_ymqDWZ-20" value="Kegiatan 3" style="text;html=1;strokeColor=none;fillColor=none;align=center;verticalAlign=middle;whiteSpace=wrap;rounded=0;sketch=0;fontSize=17;" vertex="1" parent="1">
          <mxGeometry x="435" y="600" width="90" height="30" as="geometry" />
        </mxCell>
        <mxCell id="xJkJOXk_-eDxV_ymqDWZ-21" value="Kegiatan 4" style="text;html=1;strokeColor=none;fillColor=none;align=center;verticalAlign=middle;whiteSpace=wrap;rounded=0;sketch=0;fontSize=17;" vertex="1" parent="1">
          <mxGeometry x="555" y="600" width="90" height="30" as="geometry" />
        </mxCell>
        <mxCell id="K_4yyYERyqNGvfwsvbNY-1" value="Jadwal Kegiatan" style="text;html=1;strokeColor=none;fillColor=none;align=center;verticalAlign=middle;whiteSpace=wrap;rounded=0;sketch=0;fontSize=20;fontStyle=1" vertex="1" parent="1">
          <mxGeometry x="331" y="490" width="165" height="30" as="geometry" />
        </mxCell>
      </root>
    </mxGraphModel>
  </diagram>
  <diagram id="PCYsP7AjJH-Hip-2le-f" name="Page-3">
    <mxGraphModel dx="1424" dy="681" grid="1" gridSize="10" guides="1" tooltips="1" connect="1" arrows="1" fold="1" page="1" pageScale="1" pageWidth="827" pageHeight="1169" math="0" shadow="0">
      <root>
        <mxCell id="0" />
        <mxCell id="1" parent="0" />
        <mxCell id="J4_hWsgVEzsRI1bZrlNL-1" value="" style="rounded=0;whiteSpace=wrap;html=1;" vertex="1" parent="1">
          <mxGeometry x="140" y="180" width="530" height="410" as="geometry" />
        </mxCell>
        <mxCell id="J4_hWsgVEzsRI1bZrlNL-2" value="" style="group" vertex="1" connectable="0" parent="1">
          <mxGeometry x="140" y="180" width="530" height="60" as="geometry" />
        </mxCell>
        <mxCell id="J4_hWsgVEzsRI1bZrlNL-3" value="" style="group" vertex="1" connectable="0" parent="J4_hWsgVEzsRI1bZrlNL-2">
          <mxGeometry width="530" height="60" as="geometry" />
        </mxCell>
        <mxCell id="J4_hWsgVEzsRI1bZrlNL-4" value="" style="rounded=0;whiteSpace=wrap;html=1;" vertex="1" parent="J4_hWsgVEzsRI1bZrlNL-3">
          <mxGeometry width="530" height="60" as="geometry" />
        </mxCell>
        <mxCell id="J4_hWsgVEzsRI1bZrlNL-5" value="E - Church" style="text;html=1;strokeColor=none;fillColor=none;align=center;verticalAlign=middle;whiteSpace=wrap;rounded=0;fontSize=17;fontStyle=1" vertex="1" parent="J4_hWsgVEzsRI1bZrlNL-3">
          <mxGeometry x="30" width="90" height="60" as="geometry" />
        </mxCell>
        <mxCell id="J4_hWsgVEzsRI1bZrlNL-6" value="pilihan menu" style="text;html=1;strokeColor=none;fillColor=none;align=center;verticalAlign=middle;whiteSpace=wrap;rounded=0;fontSize=17;fontStyle=2" vertex="1" parent="J4_hWsgVEzsRI1bZrlNL-3">
          <mxGeometry x="290" y="15" width="150" height="30" as="geometry" />
        </mxCell>
        <mxCell id="1URG2lvE5JUxLTI1wnck-1" value="Masuk" style="strokeWidth=1;shadow=0;dashed=0;align=center;html=1;shape=mxgraph.mockup.buttons.button;strokeColor=#666666;fontColor=#ffffff;mainText=;buttonStyle=round;fontSize=17;fontStyle=1;fillColor=#008cff;whiteSpace=wrap;sketch=0;" vertex="1" parent="J4_hWsgVEzsRI1bZrlNL-3">
          <mxGeometry x="420" y="17.5" width="90" height="25" as="geometry" />
        </mxCell>
        <mxCell id="J4_hWsgVEzsRI1bZrlNL-7" value="" style="verticalLabelPosition=bottom;shadow=0;dashed=0;align=center;html=1;verticalAlign=top;strokeWidth=1;shape=mxgraph.mockup.navigation.scrollBar;strokeColor=#999999;barPos=4.795;fillColor2=#99ddff;strokeColor2=none;direction=north;sketch=0;fontSize=37;" vertex="1" parent="1">
          <mxGeometry x="650" y="240" width="20" height="350" as="geometry" />
        </mxCell>
        <mxCell id="J4_hWsgVEzsRI1bZrlNL-8" value="" style="rounded=0;whiteSpace=wrap;html=1;sketch=0;fontSize=17;" vertex="1" parent="1">
          <mxGeometry x="190" y="335" width="430" height="160" as="geometry" />
        </mxCell>
        <mxCell id="J4_hWsgVEzsRI1bZrlNL-9" value="Informasi total jemaat dan lokasi terintegrasi" style="text;html=1;strokeColor=none;fillColor=none;align=center;verticalAlign=middle;whiteSpace=wrap;rounded=0;sketch=0;fontSize=37;fontStyle=0" vertex="1" parent="1">
          <mxGeometry x="210" y="350" width="390" height="130" as="geometry" />
        </mxCell>
      </root>
    </mxGraphModel>
  </diagram>
  <diagram id="QgdWtddhL4GYS0XSkcwm" name="Page-4">
    <mxGraphModel dx="1424" dy="681" grid="1" gridSize="10" guides="1" tooltips="1" connect="1" arrows="1" fold="1" page="1" pageScale="1" pageWidth="827" pageHeight="1169" math="0" shadow="0">
      <root>
        <mxCell id="0" />
        <mxCell id="1" parent="0" />
        <mxCell id="_TXB5gCKhwsM7NN6ektI-1" value="" style="rounded=0;whiteSpace=wrap;html=1;" vertex="1" parent="1">
          <mxGeometry x="149" y="170" width="530" height="410" as="geometry" />
        </mxCell>
        <mxCell id="_TXB5gCKhwsM7NN6ektI-2" value="" style="group" vertex="1" connectable="0" parent="1">
          <mxGeometry x="149" y="170" width="530" height="60" as="geometry" />
        </mxCell>
        <mxCell id="_TXB5gCKhwsM7NN6ektI-3" value="" style="group" vertex="1" connectable="0" parent="_TXB5gCKhwsM7NN6ektI-2">
          <mxGeometry width="530" height="60" as="geometry" />
        </mxCell>
        <mxCell id="_TXB5gCKhwsM7NN6ektI-4" value="" style="rounded=0;whiteSpace=wrap;html=1;" vertex="1" parent="_TXB5gCKhwsM7NN6ektI-3">
          <mxGeometry width="530" height="60" as="geometry" />
        </mxCell>
        <mxCell id="_TXB5gCKhwsM7NN6ektI-5" value="E - Church" style="text;html=1;strokeColor=none;fillColor=none;align=center;verticalAlign=middle;whiteSpace=wrap;rounded=0;fontSize=17;fontStyle=1" vertex="1" parent="_TXB5gCKhwsM7NN6ektI-3">
          <mxGeometry x="30" width="90" height="60" as="geometry" />
        </mxCell>
        <mxCell id="_TXB5gCKhwsM7NN6ektI-6" value="&lt;span style=&quot;font-style: normal;&quot;&gt;Lokasi&lt;/span&gt;" style="text;html=1;strokeColor=none;fillColor=none;align=center;verticalAlign=middle;whiteSpace=wrap;rounded=0;fontSize=17;fontStyle=2" vertex="1" parent="_TXB5gCKhwsM7NN6ektI-3">
          <mxGeometry x="310" y="17.5" width="150" height="30" as="geometry" />
        </mxCell>
        <mxCell id="fk20nkBI6o4c2V4YMAqo-1" value="" style="shape=actor;whiteSpace=wrap;html=1;sketch=0;fontSize=37;" vertex="1" parent="_TXB5gCKhwsM7NN6ektI-3">
          <mxGeometry x="440" y="12.5" width="30" height="35" as="geometry" />
        </mxCell>
        <mxCell id="_TXB5gCKhwsM7NN6ektI-7" value="" style="verticalLabelPosition=bottom;shadow=0;dashed=0;align=center;html=1;verticalAlign=top;strokeWidth=1;shape=mxgraph.mockup.navigation.scrollBar;strokeColor=#999999;barPos=100;fillColor2=#99ddff;strokeColor2=none;direction=north;sketch=0;fontSize=37;" vertex="1" parent="1">
          <mxGeometry x="659" y="230" width="20" height="350" as="geometry" />
        </mxCell>
        <mxCell id="0tvADdSxL2NtGFvz8HyH-1" value="&lt;font style=&quot;font-size: 37px;&quot;&gt;Welcome&lt;/font&gt;" style="text;html=1;strokeColor=none;fillColor=none;align=center;verticalAlign=middle;whiteSpace=wrap;rounded=0;fontSize=17;fontStyle=3" vertex="1" parent="1">
          <mxGeometry x="384" y="360" width="60" height="30" as="geometry" />
        </mxCell>
      </root>
    </mxGraphModel>
  </diagram>
  <diagram id="KW3qAC1XYBrlgCCSv5UB" name="Page-5">
    <mxGraphModel dx="1052" dy="503" grid="1" gridSize="10" guides="1" tooltips="1" connect="1" arrows="1" fold="1" page="1" pageScale="1" pageWidth="827" pageHeight="1169" math="0" shadow="0">
      <root>
        <mxCell id="0" />
        <mxCell id="1" parent="0" />
        <mxCell id="6aAKipHNgVSpZBWwjPip-1" value="" style="rounded=0;whiteSpace=wrap;html=1;" vertex="1" parent="1">
          <mxGeometry x="149" y="170" width="530" height="410" as="geometry" />
        </mxCell>
        <mxCell id="6aAKipHNgVSpZBWwjPip-2" value="" style="group" vertex="1" connectable="0" parent="1">
          <mxGeometry x="149" y="170" width="530" height="60" as="geometry" />
        </mxCell>
        <mxCell id="6aAKipHNgVSpZBWwjPip-3" value="" style="group" vertex="1" connectable="0" parent="6aAKipHNgVSpZBWwjPip-2">
          <mxGeometry width="530" height="60" as="geometry" />
        </mxCell>
        <mxCell id="6aAKipHNgVSpZBWwjPip-4" value="" style="rounded=0;whiteSpace=wrap;html=1;" vertex="1" parent="6aAKipHNgVSpZBWwjPip-3">
          <mxGeometry width="530" height="60" as="geometry" />
        </mxCell>
        <mxCell id="6aAKipHNgVSpZBWwjPip-5" value="E - Church" style="text;html=1;strokeColor=none;fillColor=none;align=center;verticalAlign=middle;whiteSpace=wrap;rounded=0;fontSize=17;fontStyle=1" vertex="1" parent="6aAKipHNgVSpZBWwjPip-3">
          <mxGeometry x="30" width="90" height="60" as="geometry" />
        </mxCell>
        <mxCell id="6aAKipHNgVSpZBWwjPip-10" value="" style="shape=singleArrow;direction=west;whiteSpace=wrap;html=1;sketch=0;fontSize=37;" vertex="1" parent="6aAKipHNgVSpZBWwjPip-3">
          <mxGeometry x="451" y="15" width="30" height="30" as="geometry" />
        </mxCell>
        <mxCell id="6aAKipHNgVSpZBWwjPip-8" value="" style="verticalLabelPosition=bottom;shadow=0;dashed=0;align=center;html=1;verticalAlign=top;strokeWidth=1;shape=mxgraph.mockup.navigation.scrollBar;strokeColor=#999999;barPos=100;fillColor2=#99ddff;strokeColor2=none;direction=north;sketch=0;fontSize=37;" vertex="1" parent="1">
          <mxGeometry x="659" y="230" width="20" height="350" as="geometry" />
        </mxCell>
        <mxCell id="6aAKipHNgVSpZBWwjPip-11" value="" style="strokeWidth=1;shadow=0;dashed=0;align=center;html=1;shape=mxgraph.mockup.forms.rrect;rSize=0;strokeColor=#999999;fillColor=#ffffff;sketch=0;fontSize=37;" vertex="1" parent="1">
          <mxGeometry x="314" y="250" width="200" height="300" as="geometry" />
        </mxCell>
        <mxCell id="6aAKipHNgVSpZBWwjPip-12" value="Login" style="strokeWidth=1;shadow=0;dashed=0;align=center;html=1;shape=mxgraph.mockup.forms.anchor;fontSize=12;fontColor=#666666;align=left;resizeWidth=1;spacingLeft=0;sketch=0;" vertex="1" parent="6aAKipHNgVSpZBWwjPip-11">
          <mxGeometry width="40" height="20" relative="1" as="geometry">
            <mxPoint x="80" y="10" as="offset" />
          </mxGeometry>
        </mxCell>
        <mxCell id="6aAKipHNgVSpZBWwjPip-13" value="" style="shape=line;strokeColor=#ddeeff;strokeWidth=2;html=1;resizeWidth=1;sketch=0;fontSize=37;" vertex="1" parent="6aAKipHNgVSpZBWwjPip-11">
          <mxGeometry width="180" height="10" relative="1" as="geometry">
            <mxPoint x="10" y="30" as="offset" />
          </mxGeometry>
        </mxCell>
        <mxCell id="6aAKipHNgVSpZBWwjPip-14" value="Email :" style="strokeWidth=1;shadow=0;dashed=0;align=center;html=1;shape=mxgraph.mockup.forms.anchor;fontSize=12;fontColor=#666666;align=left;resizeWidth=1;spacingLeft=0;sketch=0;" vertex="1" parent="6aAKipHNgVSpZBWwjPip-11">
          <mxGeometry width="100" height="20" relative="1" as="geometry">
            <mxPoint x="26" y="40" as="offset" />
          </mxGeometry>
        </mxCell>
        <mxCell id="6aAKipHNgVSpZBWwjPip-15" value="" style="strokeWidth=1;shadow=0;dashed=0;align=center;html=1;shape=mxgraph.mockup.forms.rrect;rSize=0;strokeColor=#999999;fontColor=#666666;align=left;spacingLeft=5;resizeWidth=1;sketch=0;fontSize=37;" vertex="1" parent="6aAKipHNgVSpZBWwjPip-11">
          <mxGeometry width="150" height="25" relative="1" as="geometry">
            <mxPoint x="25" y="60" as="offset" />
          </mxGeometry>
        </mxCell>
        <mxCell id="6aAKipHNgVSpZBWwjPip-16" value="Kata Sandi :" style="strokeWidth=1;shadow=0;dashed=0;align=center;html=1;shape=mxgraph.mockup.forms.anchor;fontSize=12;fontColor=#666666;align=left;resizeWidth=1;spacingLeft=0;sketch=0;" vertex="1" parent="6aAKipHNgVSpZBWwjPip-11">
          <mxGeometry width="100" height="20" relative="1" as="geometry">
            <mxPoint x="26" y="95" as="offset" />
          </mxGeometry>
        </mxCell>
        <mxCell id="6aAKipHNgVSpZBWwjPip-17" value="&lt;font style=&quot;font-size: 25px;&quot;&gt;********&lt;/font&gt;" style="strokeWidth=1;shadow=0;dashed=0;align=center;html=1;shape=mxgraph.mockup.forms.rrect;rSize=0;strokeColor=#999999;fontColor=#666666;align=left;spacingLeft=5;resizeWidth=1;sketch=0;fontSize=37;" vertex="1" parent="6aAKipHNgVSpZBWwjPip-11">
          <mxGeometry width="150" height="25" relative="1" as="geometry">
            <mxPoint x="25" y="115" as="offset" />
          </mxGeometry>
        </mxCell>
        <mxCell id="6aAKipHNgVSpZBWwjPip-18" value="Masuk" style="strokeWidth=1;shadow=0;dashed=0;align=center;html=1;shape=mxgraph.mockup.forms.rrect;rSize=5;strokeColor=none;fontColor=#ffffff;fillColor=#66bbff;fontSize=16;fontStyle=1;sketch=0;" vertex="1" parent="6aAKipHNgVSpZBWwjPip-11">
          <mxGeometry y="1" width="80" height="30" relative="1" as="geometry">
            <mxPoint x="60" y="-150" as="offset" />
          </mxGeometry>
        </mxCell>
        <mxCell id="6aAKipHNgVSpZBWwjPip-20" value="" style="shape=line;strokeColor=#ddeeff;strokeWidth=2;html=1;resizeWidth=1;sketch=0;fontSize=37;" vertex="1" parent="6aAKipHNgVSpZBWwjPip-11">
          <mxGeometry y="1" width="180" height="10" relative="1" as="geometry">
            <mxPoint x="10" y="-110" as="offset" />
          </mxGeometry>
        </mxCell>
        <mxCell id="6aAKipHNgVSpZBWwjPip-22" value="Daftar" style="strokeWidth=1;shadow=0;dashed=0;align=center;html=1;shape=mxgraph.mockup.forms.rrect;rSize=5;strokeColor=none;fontColor=#ffffff;fillColor=#66bbff;fontSize=16;fontStyle=1;sketch=0;" vertex="1" parent="6aAKipHNgVSpZBWwjPip-11">
          <mxGeometry y="1" width="80" height="30" relative="1" as="geometry">
            <mxPoint x="60" y="-90" as="offset" />
          </mxGeometry>
        </mxCell>
      </root>
    </mxGraphModel>
  </diagram>
  <diagram id="530LDVEy84BbD6Zw2YuN" name="Page-6">
    <mxGraphModel dx="2017" dy="965" grid="1" gridSize="10" guides="1" tooltips="1" connect="1" arrows="1" fold="1" page="1" pageScale="1" pageWidth="827" pageHeight="1169" math="0" shadow="0">
      <root>
        <mxCell id="0" />
        <mxCell id="1" parent="0" />
        <mxCell id="poQ9oGjLGPg4WKKm8NbC-1" value="" style="rounded=0;whiteSpace=wrap;html=1;" vertex="1" parent="1">
          <mxGeometry x="210" y="90" width="530" height="780" as="geometry" />
        </mxCell>
        <mxCell id="poQ9oGjLGPg4WKKm8NbC-2" value="" style="group" vertex="1" connectable="0" parent="1">
          <mxGeometry x="210" y="90" width="530" height="60" as="geometry" />
        </mxCell>
        <mxCell id="poQ9oGjLGPg4WKKm8NbC-3" value="" style="group" vertex="1" connectable="0" parent="poQ9oGjLGPg4WKKm8NbC-2">
          <mxGeometry width="530" height="60" as="geometry" />
        </mxCell>
        <mxCell id="poQ9oGjLGPg4WKKm8NbC-4" value="" style="rounded=0;whiteSpace=wrap;html=1;" vertex="1" parent="poQ9oGjLGPg4WKKm8NbC-3">
          <mxGeometry width="530" height="60" as="geometry" />
        </mxCell>
        <mxCell id="poQ9oGjLGPg4WKKm8NbC-5" value="E - Church" style="text;html=1;strokeColor=none;fillColor=none;align=center;verticalAlign=middle;whiteSpace=wrap;rounded=0;fontSize=17;fontStyle=1" vertex="1" parent="poQ9oGjLGPg4WKKm8NbC-3">
          <mxGeometry x="30" width="90" height="60" as="geometry" />
        </mxCell>
        <mxCell id="poQ9oGjLGPg4WKKm8NbC-6" value="" style="shape=singleArrow;direction=west;whiteSpace=wrap;html=1;sketch=0;fontSize=37;" vertex="1" parent="poQ9oGjLGPg4WKKm8NbC-3">
          <mxGeometry x="451" y="15" width="30" height="30" as="geometry" />
        </mxCell>
        <mxCell id="poQ9oGjLGPg4WKKm8NbC-7" value="" style="verticalLabelPosition=bottom;shadow=0;dashed=0;align=center;html=1;verticalAlign=top;strokeWidth=1;shape=mxgraph.mockup.navigation.scrollBar;strokeColor=#999999;barPos=100;fillColor2=#99ddff;strokeColor2=none;direction=north;sketch=0;fontSize=37;" vertex="1" parent="1">
          <mxGeometry x="720" y="150" width="20" height="720" as="geometry" />
        </mxCell>
        <mxCell id="poQ9oGjLGPg4WKKm8NbC-8" value="" style="strokeWidth=1;shadow=0;dashed=0;align=center;html=1;shape=mxgraph.mockup.forms.rrect;rSize=0;strokeColor=#999999;fillColor=#ffffff;sketch=0;fontSize=37;" vertex="1" parent="1">
          <mxGeometry x="290" y="170" width="340" height="670" as="geometry" />
        </mxCell>
        <mxCell id="poQ9oGjLGPg4WKKm8NbC-9" value="Daftar" style="strokeWidth=1;shadow=0;dashed=0;align=center;html=1;shape=mxgraph.mockup.forms.anchor;fontSize=18;fontColor=#666666;align=left;resizeWidth=1;spacingLeft=0;sketch=0;fontStyle=1" vertex="1" parent="poQ9oGjLGPg4WKKm8NbC-8">
          <mxGeometry width="41.21212121212121" height="20" relative="1" as="geometry">
            <mxPoint x="140" y="10" as="offset" />
          </mxGeometry>
        </mxCell>
        <mxCell id="poQ9oGjLGPg4WKKm8NbC-10" value="" style="shape=line;strokeColor=#ddeeff;strokeWidth=2;html=1;resizeWidth=1;sketch=0;fontSize=37;" vertex="1" parent="poQ9oGjLGPg4WKKm8NbC-8">
          <mxGeometry width="306.0000000000001" height="10" relative="1" as="geometry">
            <mxPoint x="10" y="30" as="offset" />
          </mxGeometry>
        </mxCell>
        <mxCell id="poQ9oGjLGPg4WKKm8NbC-11" value="Nama :" style="strokeWidth=1;shadow=0;dashed=0;align=center;html=1;shape=mxgraph.mockup.forms.anchor;fontSize=12;fontColor=#666666;align=left;resizeWidth=1;spacingLeft=0;sketch=0;" vertex="1" parent="poQ9oGjLGPg4WKKm8NbC-8">
          <mxGeometry width="170.00000000000006" height="20" relative="1" as="geometry">
            <mxPoint x="30" y="40" as="offset" />
          </mxGeometry>
        </mxCell>
        <mxCell id="poQ9oGjLGPg4WKKm8NbC-12" value="" style="strokeWidth=1;shadow=0;dashed=0;align=center;html=1;shape=mxgraph.mockup.forms.rrect;rSize=0;strokeColor=#999999;fontColor=#666666;align=left;spacingLeft=5;resizeWidth=1;sketch=0;fontSize=37;" vertex="1" parent="poQ9oGjLGPg4WKKm8NbC-8">
          <mxGeometry width="278.1818181818182" height="25" relative="1" as="geometry">
            <mxPoint x="30" y="60" as="offset" />
          </mxGeometry>
        </mxCell>
        <mxCell id="poQ9oGjLGPg4WKKm8NbC-13" value="TTL" style="strokeWidth=1;shadow=0;dashed=0;align=center;html=1;shape=mxgraph.mockup.forms.anchor;fontSize=12;fontColor=#666666;align=left;resizeWidth=1;spacingLeft=0;sketch=0;" vertex="1" parent="poQ9oGjLGPg4WKKm8NbC-8">
          <mxGeometry width="170.00000000000006" height="20" relative="1" as="geometry">
            <mxPoint x="30" y="95" as="offset" />
          </mxGeometry>
        </mxCell>
        <mxCell id="poQ9oGjLGPg4WKKm8NbC-14" value="&lt;font style=&quot;font-size: 25px;&quot;&gt;********&lt;/font&gt;" style="strokeWidth=1;shadow=0;dashed=0;align=center;html=1;shape=mxgraph.mockup.forms.rrect;rSize=0;strokeColor=#999999;fontColor=#666666;align=left;spacingLeft=5;resizeWidth=1;sketch=0;fontSize=37;" vertex="1" parent="poQ9oGjLGPg4WKKm8NbC-8">
          <mxGeometry width="280" height="25" relative="1" as="geometry">
            <mxPoint x="31" y="115" as="offset" />
          </mxGeometry>
        </mxCell>
        <mxCell id="poQ9oGjLGPg4WKKm8NbC-15" value="Masuk" style="strokeWidth=1;shadow=0;dashed=0;align=center;html=1;shape=mxgraph.mockup.forms.rrect;rSize=5;strokeColor=none;fontColor=#ffffff;fillColor=#66bbff;fontSize=16;fontStyle=1;sketch=0;" vertex="1" parent="poQ9oGjLGPg4WKKm8NbC-8">
          <mxGeometry y="1" width="80" height="30" relative="1" as="geometry">
            <mxPoint x="190" y="-90" as="offset" />
          </mxGeometry>
        </mxCell>
        <mxCell id="poQ9oGjLGPg4WKKm8NbC-16" value="" style="shape=line;strokeColor=#ddeeff;strokeWidth=2;html=1;resizeWidth=1;sketch=0;fontSize=37;" vertex="1" parent="poQ9oGjLGPg4WKKm8NbC-8">
          <mxGeometry y="1" width="306.0000000000001" height="10" relative="1" as="geometry">
            <mxPoint x="10" y="-110" as="offset" />
          </mxGeometry>
        </mxCell>
        <mxCell id="poQ9oGjLGPg4WKKm8NbC-17" value="Daftar" style="strokeWidth=1;shadow=0;dashed=0;align=center;html=1;shape=mxgraph.mockup.forms.rrect;rSize=5;strokeColor=none;fontColor=#ffffff;fillColor=#66bbff;fontSize=16;fontStyle=1;sketch=0;" vertex="1" parent="poQ9oGjLGPg4WKKm8NbC-8">
          <mxGeometry y="1" width="80" height="30" relative="1" as="geometry">
            <mxPoint x="60" y="-90" as="offset" />
          </mxGeometry>
        </mxCell>
        <mxCell id="poQ9oGjLGPg4WKKm8NbC-21" value="" style="strokeWidth=1;shadow=0;dashed=0;align=center;html=1;shape=mxgraph.mockup.forms.rrect;rSize=0;strokeColor=#999999;fontColor=#666666;align=left;spacingLeft=5;resizeWidth=1;sketch=0;fontSize=37;" vertex="1" parent="poQ9oGjLGPg4WKKm8NbC-8">
          <mxGeometry x="30" y="160" width="278.1818181818182" height="25" as="geometry" />
        </mxCell>
        <mxCell id="poQ9oGjLGPg4WKKm8NbC-22" value="" style="strokeWidth=1;shadow=0;dashed=0;align=center;html=1;shape=mxgraph.mockup.forms.rrect;rSize=0;strokeColor=#999999;fontColor=#666666;align=left;spacingLeft=5;resizeWidth=1;sketch=0;fontSize=37;" vertex="1" parent="poQ9oGjLGPg4WKKm8NbC-8">
          <mxGeometry x="30" y="210" width="278.1818181818182" height="25" as="geometry" />
        </mxCell>
        <mxCell id="QiWtDY9ehRB2O74JtDBq-1" value="" style="verticalLabelPosition=bottom;shadow=0;dashed=0;align=center;html=1;verticalAlign=top;strokeWidth=1;shape=mxgraph.mockup.misc.map;sketch=0;fontSize=20;" vertex="1" parent="poQ9oGjLGPg4WKKm8NbC-8">
          <mxGeometry x="30" y="260" width="280" height="270" as="geometry" />
        </mxCell>
      </root>
    </mxGraphModel>
  </diagram>
  <diagram id="BdZGTOCRlWh7mw5ugZS6" name="Page-7">
    <mxGraphModel dx="1424" dy="681" grid="1" gridSize="10" guides="1" tooltips="1" connect="1" arrows="1" fold="1" page="1" pageScale="1" pageWidth="827" pageHeight="1169" math="0" shadow="0">
      <root>
        <mxCell id="0" />
        <mxCell id="1" parent="0" />
        <mxCell id="oImbNwiQvJYwrN8YDYu1-1" value="" style="rounded=0;whiteSpace=wrap;html=1;" vertex="1" parent="1">
          <mxGeometry x="148" y="110" width="530" height="410" as="geometry" />
        </mxCell>
        <mxCell id="oImbNwiQvJYwrN8YDYu1-2" value="" style="group" vertex="1" connectable="0" parent="1">
          <mxGeometry x="148" y="110" width="530" height="60" as="geometry" />
        </mxCell>
        <mxCell id="oImbNwiQvJYwrN8YDYu1-3" value="" style="group" vertex="1" connectable="0" parent="oImbNwiQvJYwrN8YDYu1-2">
          <mxGeometry width="530" height="60" as="geometry" />
        </mxCell>
        <mxCell id="oImbNwiQvJYwrN8YDYu1-4" value="" style="rounded=0;whiteSpace=wrap;html=1;" vertex="1" parent="oImbNwiQvJYwrN8YDYu1-3">
          <mxGeometry width="530" height="60" as="geometry" />
        </mxCell>
        <mxCell id="oImbNwiQvJYwrN8YDYu1-5" value="E - Church" style="text;html=1;strokeColor=none;fillColor=none;align=center;verticalAlign=middle;whiteSpace=wrap;rounded=0;fontSize=17;fontStyle=1" vertex="1" parent="oImbNwiQvJYwrN8YDYu1-3">
          <mxGeometry x="30" width="90" height="60" as="geometry" />
        </mxCell>
        <mxCell id="oImbNwiQvJYwrN8YDYu1-6" value="pilihan menu" style="text;html=1;strokeColor=none;fillColor=none;align=center;verticalAlign=middle;whiteSpace=wrap;rounded=0;fontSize=17;fontStyle=2" vertex="1" parent="oImbNwiQvJYwrN8YDYu1-3">
          <mxGeometry x="290" y="15" width="150" height="30" as="geometry" />
        </mxCell>
        <mxCell id="oImbNwiQvJYwrN8YDYu1-23" value="" style="shape=actor;whiteSpace=wrap;html=1;sketch=0;fontSize=20;" vertex="1" parent="oImbNwiQvJYwrN8YDYu1-3">
          <mxGeometry x="452" y="15" width="30" height="30" as="geometry" />
        </mxCell>
        <mxCell id="QQP5WPhpgnACp6HXb-cW-1" value="" style="verticalLabelPosition=bottom;shadow=0;dashed=0;align=center;html=1;verticalAlign=top;strokeWidth=1;shape=mxgraph.mockup.misc.map;sketch=0;fontSize=20;" vertex="1" parent="1">
          <mxGeometry x="170" y="190" width="490" height="310" as="geometry" />
        </mxCell>
        <mxCell id="oImbNwiQvJYwrN8YDYu1-26" value="Rute" style="strokeWidth=1;shadow=0;dashed=0;align=center;html=1;shape=mxgraph.mockup.buttons.button;strokeColor=#666666;fontColor=#ffffff;mainText=;buttonStyle=round;fontSize=17;fontStyle=1;fillColor=#008cff;whiteSpace=wrap;sketch=0;" vertex="1" parent="1">
          <mxGeometry x="200" y="450" width="110" height="30" as="geometry" />
        </mxCell>
        <mxCell id="oImbNwiQvJYwrN8YDYu1-27" value="Search" style="strokeWidth=1;shadow=0;dashed=0;align=center;html=1;shape=mxgraph.mockup.forms.searchBox;strokeColor=#999999;mainText=;strokeColor2=#008cff;fontColor=#666666;fontSize=17;align=left;spacingLeft=3;sketch=0;" vertex="1" parent="1">
          <mxGeometry x="190" y="200" width="130" height="30" as="geometry" />
        </mxCell>
      </root>
    </mxGraphModel>
  </diagram>
  <diagram id="oBn8bXRm1tJ2iyXOsIs0" name="Page-8">
    <mxGraphModel dx="1210" dy="579" grid="1" gridSize="10" guides="1" tooltips="1" connect="1" arrows="1" fold="1" page="1" pageScale="1" pageWidth="827" pageHeight="1169" math="0" shadow="0">
      <root>
        <mxCell id="0" />
        <mxCell id="1" parent="0" />
        <mxCell id="yzfuZB1h4_enrAyHLCb5-1" value="" style="rounded=0;whiteSpace=wrap;html=1;" vertex="1" parent="1">
          <mxGeometry x="149" y="50" width="530" height="410" as="geometry" />
        </mxCell>
        <mxCell id="yzfuZB1h4_enrAyHLCb5-2" value="" style="group" vertex="1" connectable="0" parent="1">
          <mxGeometry x="149" y="50" width="530" height="60" as="geometry" />
        </mxCell>
        <mxCell id="yzfuZB1h4_enrAyHLCb5-3" value="" style="group" vertex="1" connectable="0" parent="yzfuZB1h4_enrAyHLCb5-2">
          <mxGeometry width="530" height="60" as="geometry" />
        </mxCell>
        <mxCell id="yzfuZB1h4_enrAyHLCb5-4" value="" style="rounded=0;whiteSpace=wrap;html=1;" vertex="1" parent="yzfuZB1h4_enrAyHLCb5-3">
          <mxGeometry width="530" height="60" as="geometry" />
        </mxCell>
        <mxCell id="yzfuZB1h4_enrAyHLCb5-5" value="E - Church" style="text;html=1;strokeColor=none;fillColor=none;align=center;verticalAlign=middle;whiteSpace=wrap;rounded=0;fontSize=17;fontStyle=1" vertex="1" parent="yzfuZB1h4_enrAyHLCb5-3">
          <mxGeometry x="30" width="90" height="60" as="geometry" />
        </mxCell>
        <mxCell id="yzfuZB1h4_enrAyHLCb5-6" value="pilihan menu" style="text;html=1;strokeColor=none;fillColor=none;align=center;verticalAlign=middle;whiteSpace=wrap;rounded=0;fontSize=17;fontStyle=2" vertex="1" parent="yzfuZB1h4_enrAyHLCb5-3">
          <mxGeometry x="290" y="15" width="150" height="30" as="geometry" />
        </mxCell>
        <mxCell id="yzfuZB1h4_enrAyHLCb5-7" value="" style="shape=actor;whiteSpace=wrap;html=1;sketch=0;fontSize=20;" vertex="1" parent="yzfuZB1h4_enrAyHLCb5-3">
          <mxGeometry x="452" y="15" width="30" height="30" as="geometry" />
        </mxCell>
        <mxCell id="r2iYOxo-6cZAXqvO-uId-1" value="&lt;table cellpadding=&quot;4&quot; cellspacing=&quot;0&quot; border=&quot;1&quot; style=&quot;font-size:1em;width:100%;height:100%;&quot;&gt;&lt;tr&gt;&lt;th&gt;Header 1&lt;/th&gt;&lt;th&gt;Header 2&lt;/th&gt;&lt;/tr&gt;&lt;tr&gt;&lt;td&gt;row 1, cell 1&lt;/td&gt;&lt;td&gt;row 1, cell 2&lt;/td&gt;&lt;/tr&gt;&lt;tr&gt;&lt;td&gt;row 2, cell 1&lt;/td&gt;&lt;td&gt;row 2, cell 2&lt;/td&gt;&lt;/tr&gt;&lt;/table&gt; " style="verticalAlign=top;align=left;overflow=fill;fontSize=12;fontFamily=Helvetica;html=1;sketch=0;" vertex="1" parent="1">
          <mxGeometry x="170" y="160" width="310" height="80" as="geometry" />
        </mxCell>
        <mxCell id="r2iYOxo-6cZAXqvO-uId-2" value="&lt;table cellpadding=&quot;4&quot; cellspacing=&quot;0&quot; border=&quot;1&quot; style=&quot;font-size:1em;width:100%;height:100%;&quot;&gt;&lt;tbody&gt;&lt;tr&gt;&lt;th&gt;Header 1&lt;/th&gt;&lt;th&gt;aksi&lt;/th&gt;&lt;/tr&gt;&lt;tr&gt;&lt;td&gt;row 1, cell 1&lt;/td&gt;&lt;td&gt;&lt;br&gt;&lt;/td&gt;&lt;/tr&gt;&lt;tr&gt;&lt;td&gt;row 2, cell 1&lt;br&gt;&lt;/td&gt;&lt;td&gt;&lt;/td&gt;&lt;/tr&gt;&lt;/tbody&gt;&lt;/table&gt; " style="verticalAlign=top;align=left;overflow=fill;fontSize=12;fontFamily=Helvetica;html=1;sketch=0;" vertex="1" parent="1">
          <mxGeometry x="470" y="160" width="180" height="80" as="geometry" />
        </mxCell>
        <mxCell id="r2iYOxo-6cZAXqvO-uId-4" value="List Jemaat" style="text;html=1;strokeColor=none;fillColor=none;align=center;verticalAlign=middle;whiteSpace=wrap;rounded=0;sketch=0;fontSize=20;" vertex="1" parent="1">
          <mxGeometry x="170" y="120" width="120" height="30" as="geometry" />
        </mxCell>
        <mxCell id="r2iYOxo-6cZAXqvO-uId-5" value="Search" style="strokeWidth=1;shadow=0;dashed=0;align=center;html=1;shape=mxgraph.mockup.forms.searchBox;strokeColor=#999999;mainText=;strokeColor2=#008cff;fontColor=#666666;fontSize=17;align=left;spacingLeft=3;sketch=0;" vertex="1" parent="1">
          <mxGeometry x="500" y="120" width="150" height="30" as="geometry" />
        </mxCell>
        <mxCell id="r2iYOxo-6cZAXqvO-uId-7" value="" style="verticalLabelPosition=bottom;shadow=0;dashed=0;align=center;html=1;verticalAlign=top;strokeWidth=1;shape=mxgraph.mockup.navigation.pageControl;fillColor=#999999;strokeColor=#ddeeff;sketch=0;fontSize=20;" vertex="1" parent="1">
          <mxGeometry x="364" y="250" width="100" height="30" as="geometry" />
        </mxCell>
      </root>
    </mxGraphModel>
  </diagram>
  <diagram id="kycmt0yMzQjQmRQDTYjd" name="Page-9">
    <mxGraphModel dx="2017" dy="965" grid="1" gridSize="10" guides="1" tooltips="1" connect="1" arrows="1" fold="1" page="1" pageScale="1" pageWidth="827" pageHeight="1169" math="0" shadow="0">
      <root>
        <mxCell id="0" />
        <mxCell id="1" parent="0" />
        <mxCell id="J1RO7YnGkjzmV0CB2piC-1" value="" style="rounded=0;whiteSpace=wrap;html=1;" vertex="1" parent="1">
          <mxGeometry x="149" y="50" width="530" height="410" as="geometry" />
        </mxCell>
        <mxCell id="J1RO7YnGkjzmV0CB2piC-2" value="" style="group" vertex="1" connectable="0" parent="1">
          <mxGeometry x="149" y="50" width="530" height="60" as="geometry" />
        </mxCell>
        <mxCell id="J1RO7YnGkjzmV0CB2piC-3" value="" style="group" vertex="1" connectable="0" parent="J1RO7YnGkjzmV0CB2piC-2">
          <mxGeometry width="530" height="60" as="geometry" />
        </mxCell>
        <mxCell id="J1RO7YnGkjzmV0CB2piC-4" value="" style="rounded=0;whiteSpace=wrap;html=1;" vertex="1" parent="J1RO7YnGkjzmV0CB2piC-3">
          <mxGeometry width="530" height="60" as="geometry" />
        </mxCell>
        <mxCell id="J1RO7YnGkjzmV0CB2piC-5" value="E - Church" style="text;html=1;strokeColor=none;fillColor=none;align=center;verticalAlign=middle;whiteSpace=wrap;rounded=0;fontSize=17;fontStyle=1" vertex="1" parent="J1RO7YnGkjzmV0CB2piC-3">
          <mxGeometry x="30" width="90" height="60" as="geometry" />
        </mxCell>
        <mxCell id="J1RO7YnGkjzmV0CB2piC-6" value="pilihan menu" style="text;html=1;strokeColor=none;fillColor=none;align=center;verticalAlign=middle;whiteSpace=wrap;rounded=0;fontSize=17;fontStyle=2" vertex="1" parent="J1RO7YnGkjzmV0CB2piC-3">
          <mxGeometry x="290" y="15" width="150" height="30" as="geometry" />
        </mxCell>
        <mxCell id="J1RO7YnGkjzmV0CB2piC-7" value="" style="shape=actor;whiteSpace=wrap;html=1;sketch=0;fontSize=20;" vertex="1" parent="J1RO7YnGkjzmV0CB2piC-3">
          <mxGeometry x="452" y="15" width="30" height="30" as="geometry" />
        </mxCell>
        <mxCell id="J1RO7YnGkjzmV0CB2piC-10" value="Tambah kegiatan" style="text;html=1;strokeColor=none;fillColor=none;align=center;verticalAlign=middle;whiteSpace=wrap;rounded=0;sketch=0;fontSize=20;" vertex="1" parent="1">
          <mxGeometry x="170" y="120" width="170" height="30" as="geometry" />
        </mxCell>
        <mxCell id="J1RO7YnGkjzmV0CB2piC-66" value="" style="verticalLabelPosition=bottom;shadow=0;dashed=0;align=center;html=1;verticalAlign=top;strokeWidth=1;shape=mxgraph.mockup.misc.map;sketch=0;fontSize=20;" vertex="1" parent="1">
          <mxGeometry x="400" y="170" width="250" height="250" as="geometry" />
        </mxCell>
        <mxCell id="J1RO7YnGkjzmV0CB2piC-82" value="" style="strokeWidth=1;shadow=0;dashed=0;align=center;html=1;shape=mxgraph.mockup.forms.rrect;rSize=0;strokeColor=#999999;fillColor=#ffffff;sketch=0;fontSize=20;" vertex="1" parent="1">
          <mxGeometry x="180" y="170" width="210" height="250" as="geometry" />
        </mxCell>
        <mxCell id="J1RO7YnGkjzmV0CB2piC-86" value="" style="strokeWidth=1;shadow=0;dashed=0;align=center;html=1;shape=mxgraph.mockup.forms.rrect;rSize=0;strokeColor=#999999;fontColor=#666666;align=left;spacingLeft=5;resizeWidth=1;sketch=0;fontSize=20;" vertex="1" parent="J1RO7YnGkjzmV0CB2piC-82">
          <mxGeometry width="157.5" height="25" relative="1" as="geometry">
            <mxPoint x="10" y="10" as="offset" />
          </mxGeometry>
        </mxCell>
        <mxCell id="J1RO7YnGkjzmV0CB2piC-91" value="" style="shape=line;strokeColor=#ddeeff;strokeWidth=2;html=1;resizeWidth=1;sketch=0;fontSize=20;" vertex="1" parent="J1RO7YnGkjzmV0CB2piC-82">
          <mxGeometry y="1" width="189" height="10" relative="1" as="geometry">
            <mxPoint x="10" y="-60" as="offset" />
          </mxGeometry>
        </mxCell>
        <mxCell id="J1RO7YnGkjzmV0CB2piC-93" value="Simpan" style="strokeWidth=1;shadow=0;dashed=0;align=center;html=1;shape=mxgraph.mockup.forms.rrect;rSize=5;strokeColor=none;fontColor=#ffffff;fillColor=#66bbff;fontSize=16;fontStyle=1;sketch=0;" vertex="1" parent="J1RO7YnGkjzmV0CB2piC-82">
          <mxGeometry y="1" width="80" height="30" relative="1" as="geometry">
            <mxPoint x="10" y="-40" as="offset" />
          </mxGeometry>
        </mxCell>
        <mxCell id="J1RO7YnGkjzmV0CB2piC-94" value="" style="strokeWidth=1;shadow=0;dashed=0;align=center;html=1;shape=mxgraph.mockup.forms.rrect;rSize=0;strokeColor=#999999;fontColor=#666666;align=left;spacingLeft=5;resizeWidth=1;sketch=0;fontSize=20;" vertex="1" parent="J1RO7YnGkjzmV0CB2piC-82">
          <mxGeometry x="10" y="46.2962962962963" width="157.5" height="23.14814814814815" as="geometry" />
        </mxCell>
        <mxCell id="J1RO7YnGkjzmV0CB2piC-100" value="Option 1" style="strokeWidth=1;shadow=0;dashed=0;align=center;html=1;shape=mxgraph.mockup.forms.rrect;rSize=0;fillColor=#eeeeee;strokeColor=#999999;gradientColor=#cccccc;align=left;spacingLeft=4;fontSize=17;fontColor=#666666;labelPosition=right;sketch=0;" vertex="1" parent="J1RO7YnGkjzmV0CB2piC-82">
          <mxGeometry x="10" y="140.00333333333333" width="15" height="13.88888888888889" as="geometry" />
        </mxCell>
        <mxCell id="J1RO7YnGkjzmV0CB2piC-101" value="Option 2" style="strokeWidth=1;shadow=0;dashed=0;align=center;html=1;shape=mxgraph.mockup.forms.rrect;rSize=0;fillColor=#eeeeee;strokeColor=#999999;gradientColor=#cccccc;align=left;spacingLeft=4;fontSize=17;fontColor=#666666;labelPosition=right;sketch=0;" vertex="1" parent="J1RO7YnGkjzmV0CB2piC-82">
          <mxGeometry x="10" y="167.7811111111111" width="15" height="13.88888888888889" as="geometry" />
        </mxCell>
        <mxCell id="J1RO7YnGkjzmV0CB2piC-102" value="Option 1" style="strokeWidth=1;shadow=0;dashed=0;align=center;html=1;shape=mxgraph.mockup.forms.comboBox;strokeColor=#999999;fillColor=#ddeeff;align=left;fillColor2=#aaddff;mainText=;fontColor=#666666;fontSize=17;spacingLeft=3;sketch=0;" vertex="1" parent="J1RO7YnGkjzmV0CB2piC-82">
          <mxGeometry x="10" y="90" width="150" height="30" as="geometry" />
        </mxCell>
      </root>
    </mxGraphModel>
  </diagram>
  <diagram id="biqHK4b7P4ubyc07Mi9U" name="Page-10">
    <mxGraphModel dx="1210" dy="579" grid="1" gridSize="10" guides="1" tooltips="1" connect="1" arrows="1" fold="1" page="1" pageScale="1" pageWidth="827" pageHeight="1169" math="0" shadow="0">
      <root>
        <mxCell id="0" />
        <mxCell id="1" parent="0" />
        <mxCell id="cSG7hvNxfKf8eIuri21m-1" value="" style="rounded=0;whiteSpace=wrap;html=1;" vertex="1" parent="1">
          <mxGeometry x="149" y="50" width="530" height="410" as="geometry" />
        </mxCell>
        <mxCell id="cSG7hvNxfKf8eIuri21m-2" value="" style="group" vertex="1" connectable="0" parent="1">
          <mxGeometry x="149" y="50" width="530" height="60" as="geometry" />
        </mxCell>
        <mxCell id="cSG7hvNxfKf8eIuri21m-3" value="" style="group" vertex="1" connectable="0" parent="cSG7hvNxfKf8eIuri21m-2">
          <mxGeometry width="530" height="60" as="geometry" />
        </mxCell>
        <mxCell id="cSG7hvNxfKf8eIuri21m-4" value="" style="rounded=0;whiteSpace=wrap;html=1;" vertex="1" parent="cSG7hvNxfKf8eIuri21m-3">
          <mxGeometry width="530" height="60" as="geometry" />
        </mxCell>
        <mxCell id="cSG7hvNxfKf8eIuri21m-5" value="E - Church" style="text;html=1;strokeColor=none;fillColor=none;align=center;verticalAlign=middle;whiteSpace=wrap;rounded=0;fontSize=17;fontStyle=1" vertex="1" parent="cSG7hvNxfKf8eIuri21m-3">
          <mxGeometry x="30" width="90" height="60" as="geometry" />
        </mxCell>
        <mxCell id="cSG7hvNxfKf8eIuri21m-6" value="pilihan menu" style="text;html=1;strokeColor=none;fillColor=none;align=center;verticalAlign=middle;whiteSpace=wrap;rounded=0;fontSize=17;fontStyle=2" vertex="1" parent="cSG7hvNxfKf8eIuri21m-3">
          <mxGeometry x="290" y="15" width="150" height="30" as="geometry" />
        </mxCell>
        <mxCell id="cSG7hvNxfKf8eIuri21m-7" value="" style="shape=actor;whiteSpace=wrap;html=1;sketch=0;fontSize=20;" vertex="1" parent="cSG7hvNxfKf8eIuri21m-3">
          <mxGeometry x="452" y="15" width="30" height="30" as="geometry" />
        </mxCell>
        <mxCell id="cSG7hvNxfKf8eIuri21m-8" value="&lt;table cellpadding=&quot;4&quot; cellspacing=&quot;0&quot; border=&quot;1&quot; style=&quot;font-size:1em;width:100%;height:100%;&quot;&gt;&lt;tr&gt;&lt;th&gt;Header 1&lt;/th&gt;&lt;th&gt;Header 2&lt;/th&gt;&lt;/tr&gt;&lt;tr&gt;&lt;td&gt;row 1, cell 1&lt;/td&gt;&lt;td&gt;row 1, cell 2&lt;/td&gt;&lt;/tr&gt;&lt;tr&gt;&lt;td&gt;row 2, cell 1&lt;/td&gt;&lt;td&gt;row 2, cell 2&lt;/td&gt;&lt;/tr&gt;&lt;/table&gt; " style="verticalAlign=top;align=left;overflow=fill;fontSize=12;fontFamily=Helvetica;html=1;sketch=0;" vertex="1" parent="1">
          <mxGeometry x="170" y="160" width="310" height="80" as="geometry" />
        </mxCell>
        <mxCell id="cSG7hvNxfKf8eIuri21m-9" value="&lt;table cellpadding=&quot;4&quot; cellspacing=&quot;0&quot; border=&quot;1&quot; style=&quot;font-size:1em;width:100%;height:100%;&quot;&gt;&lt;tbody&gt;&lt;tr&gt;&lt;th&gt;Header 1&lt;/th&gt;&lt;th&gt;aksi&lt;/th&gt;&lt;/tr&gt;&lt;tr&gt;&lt;td&gt;row 1, cell 1&lt;/td&gt;&lt;td&gt;&lt;br&gt;&lt;/td&gt;&lt;/tr&gt;&lt;tr&gt;&lt;td&gt;row 2, cell 1&lt;br&gt;&lt;/td&gt;&lt;td&gt;&lt;/td&gt;&lt;/tr&gt;&lt;/tbody&gt;&lt;/table&gt; " style="verticalAlign=top;align=left;overflow=fill;fontSize=12;fontFamily=Helvetica;html=1;sketch=0;" vertex="1" parent="1">
          <mxGeometry x="470" y="160" width="180" height="80" as="geometry" />
        </mxCell>
        <mxCell id="cSG7hvNxfKf8eIuri21m-10" value="List Kegiatan" style="text;html=1;strokeColor=none;fillColor=none;align=center;verticalAlign=middle;whiteSpace=wrap;rounded=0;sketch=0;fontSize=20;" vertex="1" parent="1">
          <mxGeometry x="170" y="120" width="120" height="30" as="geometry" />
        </mxCell>
        <mxCell id="cSG7hvNxfKf8eIuri21m-11" value="Search" style="strokeWidth=1;shadow=0;dashed=0;align=center;html=1;shape=mxgraph.mockup.forms.searchBox;strokeColor=#999999;mainText=;strokeColor2=#008cff;fontColor=#666666;fontSize=17;align=left;spacingLeft=3;sketch=0;" vertex="1" parent="1">
          <mxGeometry x="500" y="120" width="150" height="30" as="geometry" />
        </mxCell>
        <mxCell id="cSG7hvNxfKf8eIuri21m-12" value="" style="verticalLabelPosition=bottom;shadow=0;dashed=0;align=center;html=1;verticalAlign=top;strokeWidth=1;shape=mxgraph.mockup.navigation.pageControl;fillColor=#999999;strokeColor=#ddeeff;sketch=0;fontSize=20;" vertex="1" parent="1">
          <mxGeometry x="364" y="250" width="100" height="30" as="geometry" />
        </mxCell>
      </root>
    </mxGraphModel>
  </diagram>
</mxfile>
